<svg id="Capa_1" enable-background="new 0 0 512.083 512.083" height="512" viewBox="0 0 512.083 512.083" width="512" xmlns="http://www.w3.org/2000/svg"><g><g><path d="m315.587 13.069c-19.173-11.069-43.669-4.97-55.412 13.798l-243.873 389.763c-17.252 27.572-8.192 63.955 19.975 80.218 28.167 16.262 64.206 5.917 79.458-22.81l215.608-406.082c10.382-19.554 3.417-43.817-15.756-54.887z" fill="#f2b88f"/></g><g><path d="m145.453 307.749c22.468 12.972 32.233 39.474 24.979 63.271l160.911-303.064c10.382-19.554 3.417-43.818-15.756-54.887-19.173-11.07-43.669-4.97-55.412 13.798l-182.006 290.885c16.981-18.181 44.816-22.975 67.284-10.003z" fill="#e3a67b"/></g><g><path d="m503.299 180.348-11.942-46.714c-3.578-13.995-14.424-24.974-28.375-28.723l-85.505-22.971c-2.749-.739-5.57-1.182-8.413-1.322l-163.644-8.052c-14.977-.737-29.109 6.965-36.607 19.952l-23.473 40.656c-7.498 12.987-7.102 29.076 1.025 41.678l88.795 137.694c1.543 2.393 3.337 4.613 5.351 6.625l62.647 62.563c10.221 10.208 25.153 14.111 39.062 10.212l46.426-13.014c10.061-2.82 18.62-9.466 23.844-18.515l86.695-150.16c5.226-9.05 6.702-19.785 4.114-29.909z" fill="#f0f0f0"/></g><g><path d="m342.221 391.946 25.952-7.275c-17.527-13.593-52.833-41.781-58.197-52.323-7.182-14.113 1.248-47.097 4.385-68.871s-38.357-66.958-26.612-87.3 97.19-59.456 140.807-80.514l-51.079-13.723c-2.749-.739-5.57-1.182-8.413-1.322l-163.644-8.052c-14.977-.737-29.109 6.965-36.607 19.952l-23.473 40.656c-7.498 12.986-7.102 29.076 1.025 41.678l88.795 137.694c1.543 2.392 3.337 4.613 5.351 6.625l62.647 62.563c10.222 10.208 25.153 14.111 39.063 10.212z" fill="#e4e4e4"/></g><g><path d="m221.213 330.677c-11.043.242-20.191-8.514-20.433-19.557l-5.296-241.895c-.242-11.043 8.514-20.191 19.557-20.433 11.043-.242 20.191 8.514 20.433 19.557l5.296 241.895c.242 11.043-8.514 20.191-19.557 20.433z" fill="#fff48f"/></g><g><path d="m377.792 59.474c-5.312-9.684-17.469-13.229-27.154-7.917l-212.135 116.361c-9.684 5.312-13.229 17.469-7.917 27.154 5.312 9.684 17.469 13.229 27.154 7.917l212.135-116.362c9.685-5.312 13.229-17.469 7.917-27.153z" fill="#fff8ab"/></g><path d="m510.566 178.491-11.942-46.713c-4.243-16.595-17.154-29.664-33.695-34.108l-78.246-21.023c1.923-6.725 1.307-14.177-2.314-20.779-3.532-6.44-9.361-11.12-16.413-13.176-7.055-2.058-14.483-1.242-20.923 2.289l-3.412 1.872c-.611-16.363-9.496-31.741-24.283-40.279-22.784-13.153-51.564-5.988-65.519 16.315l-17.496 27.961c-5.179-6.018-12.903-9.764-21.445-9.557-14.562.319-26.261 11.964-26.866 26.318-10.763 3.709-19.946 11.204-25.693 21.156l-23.473 40.655c-5.753 9.965-7.645 21.652-5.473 32.827-12.131 7.701-16.367 23.656-9.361 36.428 2.854 5.203 7.207 9.253 12.492 11.703l-74.467 119.016c-2.197 3.512-1.132 8.14 2.38 10.337 1.237.773 2.612 1.143 3.971 1.143 2.499 0 4.942-1.248 6.365-3.522l78.089-124.804c2.529-.443 5.002-1.246 7.36-2.402l31.951 49.545 1.13 51.592c.005.218.02.434.03.651l-84.202 158.584c-6.414 12.08-17.186 20.811-30.332 24.585-13.145 3.772-26.909 2.087-38.753-4.753-11.844-6.838-20.187-17.913-23.492-31.185-3.305-13.271-1.13-26.966 6.125-38.56l36.167-57.802c2.197-3.512 1.132-8.14-2.38-10.337-3.511-2.196-8.14-1.132-10.336 2.38l-36.166 57.803c-9.434 15.077-12.262 32.884-7.964 50.142 4.297 17.257 15.146 31.658 30.548 40.55 10.027 5.789 21.111 8.74 32.344 8.74 6.02 0 12.083-.848 18.047-2.561 17.094-4.906 31.102-16.26 39.441-31.967l78.522-147.89c.286.299.578.595.879.883 5.157 4.937 11.882 7.633 18.998 7.633.206 0 .413-.002.619-.007 7.296-.159 14.094-3.134 19.163-8.376l57.32 57.242c9.021 9.009 21.171 13.886 33.596 13.886 4.27 0 8.572-.576 12.79-1.759l46.427-13.015c12.018-3.369 22.073-11.177 28.314-21.986l51.09-88.49c2.071-3.587.842-8.174-2.745-10.245-3.59-2.07-8.176-.843-10.245 2.745l-51.09 88.49c-4.271 7.396-11.15 12.738-19.373 15.043l-46.427 13.015c-8.682 2.435-17.873 1.101-25.43-3.407l35.357-33.406c5.474-5.173 8.612-12.458 8.612-19.988v-75.814c0-4.143-3.357-7.5-7.5-7.5s-7.5 3.357-7.5 7.5v75.814c0 3.423-1.427 6.734-3.914 9.086l-36.398 34.391-55.634-55.559c.355-1.878.521-3.805.479-5.76l-3.206-146.435 128.421-70.442c1.727-.947 3.309-2.057 4.743-3.295l63.909 17.17 13.043 62.771c.674 3.247.052 6.566-1.754 9.349l-18.787 28.954c-2.255 3.475-1.267 8.119 2.209 10.374 1.261.818 2.676 1.209 4.075 1.209 2.455 0 4.862-1.205 6.298-3.419l18.788-28.953c3.972-6.119 5.341-13.423 3.856-20.564l-11.503-55.36 2.675.719c11.318 3.041 20.152 11.982 23.055 23.337l11.942 46.713c2.115 8.274.929 16.904-3.342 24.301l-20.605 35.689c-2.071 3.587-.842 8.174 2.745 10.245 1.182.682 2.471 1.006 3.743 1.006 2.592 0 5.113-1.345 6.502-3.751l20.605-35.689c6.24-10.814 7.975-23.427 4.884-35.519zm-244.032-147.645c9.647-15.422 29.547-20.378 45.303-11.282 12.629 7.291 19.037 21.792 16.123 35.879l-26.172 14.356-57.846-2.846zm-22.829 70.812-.432-19.72 33.388 1.643zm-28.5-45.368c6.907-.155 12.62 5.333 12.771 12.224l.904 41.277-24.71 13.554-1.188-54.283c-.151-6.892 5.333-12.621 12.223-12.772zm-63.37 80.633 23.473-40.655c3.087-5.346 7.624-9.654 12.993-12.489l1.044 47.697-41.829 22.944c-.23-6.066 1.229-12.145 4.319-17.497zm21.573 66.025 17.294-9.487.823 37.58zm59.864 107.46c.073 3.338-1.158 6.505-3.467 8.917s-5.418 3.78-8.757 3.854c-3.331.057-6.504-1.157-8.917-3.467-2.412-2.309-3.781-5.418-3.854-8.756l-2.75-125.625 24.709-13.554zm-79.139-113.995c-2.928 1.604-6.306 1.974-9.51 1.041-3.206-.935-5.855-3.062-7.461-5.988-3.314-6.044-1.095-13.657 4.948-16.972l212.136-116.362c1.868-1.024 3.92-1.546 5.993-1.546 1.175 0 2.357.167 3.517.506 3.205.935 5.854 3.062 7.46 5.988l.001.001c1.605 2.927 1.975 6.304 1.04 9.509-.935 3.206-3.061 5.855-5.987 7.461z"/></g></svg>