<svg height="512" viewBox="0 0 58 58" width="512" xmlns="http://www.w3.org/2000/svg"><g id="Page-1" fill="none" fill-rule="evenodd"><g id="005---Log-Cabin" fill-rule="nonzero"><path id="Shape" d="m58 24c-.0001427 1.437976-1.01867 2.6744597-2.43 2.95l-8.57-4.95 2-8.91c.3255492.3920853.5641429.8488218.7 1.34.0937229.3342568.3619609.5909989.7.67 1.1776681.220302 2.1427608 1.0628432 2.52 2.2.1121661.3948283.4301171.6974564.83.79 1.2173366.2808171 2.114316 1.3151716 2.22 2.56.0346318.313956.2216386.5907261.5.74.9443802.5293855 1.5294016 1.5273631 1.53 2.61z" fill="#ebeff0"/><path id="Shape" d="m41 13.99-38.57 12.96c-1.2385299-.2406579-2.19412831-1.230523-2.3910203-2.4767598-.19689198-1.2462368.40700444-2.4824853 1.5110203-3.0932402.26775559-.1523344.44625197-.4237976.48-.73.105684-1.2448284 1.00266335-2.2791829 2.22-2.56.3998829-.0925436.71783395-.3951717.83-.79.37723924-1.1371568 1.34233192-1.979698 2.52-2.2.33752408-.0862922.60396279-.3451184.7-.68.27574939-1.0729458 1.07827076-1.9319828 2.13-2.28.3269988-.1277545.5650959-.4149827.63-.76.2442188-1.1325754 1.1142741-2.0259358 2.24-2.3.3895803-.09268207.6922881-.3992707.78-.79.2632095-1.09322476 1.1167752-1.94679052 2.21-2.21.3907293-.08771194.6973179-.39041971.79-.78.3239262-1.3499376 1.5317428-2.30129999 2.92-2.3.1949747-.00187897.3895388.01824835.58.06.4494564.07146476.8960072-.14383652 1.12-.54.3927832-.92180337 1.2980019-1.52003485 2.3-1.52.3992527-.00257556.7945471.07920949 1.16.24.3728357.1786046.8169551.11119362 1.12-.17 1.5326829-1.42676249 3.9073171-1.42676249 5.44 0 .3030449.28119362.7471643.3486046 1.12.17.3654529-.16079051.7607473-.24257556 1.16-.24 1.0019981-.00003485 1.9072168.59819663 2.3 1.52.2239928.39616348.6705436.61146476 1.12.54.1904612-.04175165.3850253-.06187897.58-.06 1.3882572-.00129999 2.5960738.9500624 2.92 2.3.0884628.38831157.3916884.69153718.78.78 1.1003506.2605037 1.9594963 1.11964944 2.22 2.22.0687751.30718524.2754041.56547141.56.7z" fill="#ebeff0"/><path id="Shape" d="m57.23 28.42-1.66-1.47-6.57-5.85v-11.1c0-.55228475-.4477153-1-1-1h-6c-.5522847 0-1 .44771525-1 1v3.99l-10.67-9.48c-.7562527-.68009917-1.9037473-.68009917-2.66 0l-25.24 22.44-1.76 1.56c-.77665988.6933007-.88884489 1.8675773-.25750538 2.6953918.63133951.8278144 1.79346715 1.030226 2.66750538.4646082.30632562 1.3654326 1.52063501 2.334385 2.92 2.33-1.65685425 0-3 1.3431458-3 3s1.34314575 3 3 3c-1.65685425 0-3 1.3431458-3 3s1.34314575 3 3 3c-1.6568542.0000001-2.99999987 1.3431458-2.99999987 3s1.34314567 2.9999999 2.99999987 3c-1.65685425 0-3 1.3431458-3 3s1.34314575 3 3 3h46c1.6568542 0 3-1.3431458 3-3s-1.3431458-3-3-3c1.6568542 0 3-1.3431458 3-3s-1.3431458-3-3-3c1.6568542 0 3-1.3431458 3-3s-1.3431458-3-3-3c1.6568542 0 3-1.3431458 3-3s-1.3431458-3-3-3c1.399365.004385 2.6136744-.9645674 2.92-2.33.3196998.2138446.695376.3286345 1.08.33.6020329.0006231 1.1719513-.271467 1.55-.74.6630353-.8818198.5226394-2.1278337-.32-2.84z" fill="#a46a43"/><g fill="#cab191"><path id="Shape" d="m9 31c-.00909544 1.5194305-1.15275395 2.7921368-2.66257301 2.9630116s-2.90898599-.8140455-3.25742699-2.2930116c.08954245-.0508685.17335727-.1112152.25-.18l3.71-3.3c1.17933567.4311791 1.96273416 1.5543167 1.96 2.81z"/><circle id="Oval" cx="6" cy="37" r="3"/><circle id="Oval" cx="6" cy="43" r="3"/><circle id="Oval" cx="6" cy="49" r="3"/><circle id="Oval" cx="6" cy="55" r="3"/><path id="Shape" d="m54.92 31.67c-.3179167 1.4008104-1.58418 2.3796995-3.0199036 2.3345464-1.4357236-.045153-2.6379738-1.101676-2.8672393-2.5196951s.5787969-2.7995696 1.9271429-3.2948513l3.71 3.3c.0766427.0687848.1604575.1291315.25.18z"/><circle id="Oval" cx="52" cy="37" r="3"/><circle id="Oval" cx="52" cy="43" r="3"/><circle id="Oval" cx="52" cy="49" r="3"/><circle id="Oval" cx="52" cy="55" r="3"/></g><path id="Shape" d="m44 39v19h-12v-19c0-.5522847.4477153-1 1-1h10c.5522847 0 1 .4477153 1 1z" fill="#603e26"/><path id="Shape" d="m50.74 28h-9.74v-8.65z" fill="#603e26"/><path id="Shape" d="m41 19.34v8.66h-6v-13.99z" fill="#805333"/><path id="Shape" d="m35 14.01v13.99h-6v-18.98012846c.2438514-.00386937.4799926.08557806.66.25012846z" fill="#603e26"/><path id="Shape" d="m29 9.01987154v18.98012846h-6v-13.99l5.34-4.74c.1800074-.1645504.4161486-.25399783.66-.25012846z" fill="#805333"/><path id="Shape" d="m23 14.01v13.99h-6v-8.66z" fill="#603e26"/><path id="Shape" d="m17 19.35v8.65h-9.74z" fill="#805333"/><path id="Shape" d="m52 34h-25c0-.5522847-.4477153-1-1-1h-12c-.5522847 0-1 .4477153-1 1h-7c1.4489318-.0051274 2.68714139-1.0451069 2.94244636-2.4713779.25530497-1.4262711-.54526267-2.8311952-1.90244636-3.3386221l.22-.19h43.48l.22.19c-1.3571837.5074269-2.1577513 1.912351-1.9024464 3.3386221.255305 1.426271 1.4935146 2.4662505 2.9424464 2.4713779z" fill="#a46a43"/><path id="Shape" d="m52 52h-8v-6h8c-1.6568542.0000001-2.9999999 1.3431458-2.9999999 3s1.3431457 2.9999999 2.9999999 3z" fill="#805333"/><path id="Shape" d="m52 46h-8v-6h8c-1.6568542 0-3 1.3431458-3 3s1.3431458 3 3 3z" fill="#a46a43"/><path id="Shape" d="m52 40h-8v-1c0-.5522847-.4477153-1-1-1h-10c-.5522847 0-1 .4477153-1 1v1h-5v-6h25c-1.6568542 0-3 1.3431458-3 3s1.3431458 3 3 3z" fill="#805333"/><path id="Shape" d="m32 46v6h-26c1.6568542-.0000001 2.99999987-1.3431458 2.99999987-3s-1.34314567-2.9999999-2.99999987-3h7c0 .5522847.4477153 1 1 1h12c.5522847 0 1-.4477153 1-1z" fill="#805333"/><path id="Shape" d="m13 40v6h-7c1.65685425 0 3-1.3431458 3-3s-1.34314575-3-3-3z" fill="#a46a43"/><path id="Shape" d="m13 34v6h-7c1.65685425 0 3-1.3431458 3-3s-1.34314575-3-3-3z" fill="#805333"/><path id="Rectangle-path" d="m27 40h5v6h-5z" fill="#a46a43"/><rect id="Rectangle-path" fill="#67b8cb" height="14" rx="1" width="14" x="13" y="33"/><path id="Shape" d="m27 39v2h-6v6h-2v-6h-6v-2h6v-6h2v6z" fill="#a48f78"/><rect id="Rectangle-path" fill="#67b8cb" height="4" rx="1" width="4" x="36" y="42"/><circle id="Oval" cx="36" cy="50" fill="#f2d45b" r="1"/><path id="Shape" d="m49 10v11.1l-8-7.11v-3.99c0-.55228475.4477153-1 1-1h6c.5522847 0 1 .44771525 1 1z" fill="#805333"/><path id="Shape" d="m26 48h-12c-1.1045695 0-2-.8954305-2-2v-12c0-1.1045695.8954305-2 2-2h12c1.1045695 0 2 .8954305 2 2v12c0 1.1045695-.8954305 2-2 2zm-12-14v12h12v-12z" fill="#603e26"/></g></g></svg>