<svg fill="none" height="512" viewBox="0 0 128 128" width="512" xmlns="http://www.w3.org/2000/svg"><path d="m111.916 25.6814c6.036-3.1945 13.225.9791 13.834 7.7811.683 7.6303-6.986 12.2716-14.496 10.7582-6.096-1.2287-12.8554-.3819-23.3841 4.3169l-1.461-5.4524c8.0465-6.8547 14.9521-11.8179 25.5071-17.4038z" fill="#79a000"/><path d="m100.956 13.612c1.846-5.56379-2.262-11.23315-8.1179-11.49947-7.8663-.35774-12.5071 9.20007-10.9062 16.90997 1.3616 6.5575.76 14.1921-2.0205 24.6332l6.3356.5255c6.3012-9.737 10.4791-17.8184 14.709-30.5692z" fill="#79a000"/><path d="m102.13 8.7483c3.74-7.3187 13.685-8.464127 19.034-2.22376 4.967 5.79466 3.056 14.64696-3.748 18.10446-10.217 5.1923-18.0795 10.0679-27.416 18.871l-4.5-4.5c5.5583-8.4846 10.0472-17.3713 16.63-30.2517z" fill="#97be11"/><path d="m61.4075 38.9987c4.9265-5.9987 13.5532-9.4979 21.5925-5.9987 4.2467 1.8484 12.4352 9.3522 15 14 3 5.4364 3.926 13.7057-6.1627 21.4767-31.8373 24.5233-52.5954 37.8843-78.5954 54.3843-9.95093 6.315-14.103795.459-8.43634-7.475 20.06244-28.0877 33.19454-47.886 56.60194-76.3873z" fill="#ffa820"/><g fill="#eb940c"><path d="m55.7017 46.0249c.4176-.5202.8384-1.0431 1.2626-1.5688 1.7066 1.0801 3.7399 2.6066 5.6647 4.2244 2.3531 1.9778 4.6199 4.1559 5.9668 5.9015.3374.4373.2564 1.0652-.1808 1.4026-.4373.3374-1.0653.2564-1.4026-.1809-1.2167-1.5768-3.3557-3.6467-5.6703-5.5922-1.9693-1.6553-4.0107-3.1743-5.6404-4.1866z"/><path d="m8.68091 109.944c.39187-.552.78133-1.101 1.16852-1.647 1.71987 1.63 3.76807 3.258 5.41467 4.262.4716.287.621.902.3336 1.374s-.9027.621-1.3743.333c-1.7294-1.053-3.7931-2.688-5.54249-4.322z"/><path d="m44.152 102.863c-.6054.405-1.2098.808-1.8135 1.21-3.6469-2.375-7.3992-5.1343-9.956-7.6494-.3937-.3873-.3989-1.0204-.0116-1.4142.3873-.3937 1.0204-.3989 1.4141-.0116 2.5851 2.5429 6.5426 5.4182 10.367 7.8652z"/><path d="m77.2625 79.5064c-.5388.4-1.0746.7968-1.6076 1.1907-.9821-1.2625-2.4795-2.9592-4.0767-4.5664-1.6896-1.7002-3.4281-3.2362-4.7473-4.0607-.4683-.2927-.6107-.9097-.318-1.378.2927-.4684.9097-.6107 1.378-.318 1.5221.9512 3.3927 2.6229 5.106 4.3469 1.6557 1.6661 3.2228 3.4405 4.2656 4.7855z"/><path d="m38.1131 77.8925c-.3739-.4066-1.0065-.4331-1.413-.0592-.4065.3738-.433 1.0064-.0592 1.4129 2.7336 2.9727 5.5122 5.2671 9.2265 7.6951.4623.3022 1.082.1724 1.3842-.2899s.1724-1.082-.2899-1.3842c-3.5968-2.3511-6.2432-4.5414-8.8486-7.3747z"/><path d="m92.1657 60.9344c-.4506.3193-1.0748.2127-1.394-.2379-2.2251-3.1409-4.5724-5.6491-7.842-8.4374-.4202-.3583-.4704-.9895-.112-1.4097.3584-.4203.9895-.4704 1.4098-.112 3.3764 2.8793 5.8416 5.5076 8.1761 8.8029.3193.4507.2128 1.0748-.2379 1.3941z"/></g></svg>