<svg height="512" viewBox="0 0 58 55" width="512" xmlns="http://www.w3.org/2000/svg"><g id="Page-1" fill="none" fill-rule="evenodd"><g id="012---Grilled-Steak" fill-rule="nonzero"><path id="Shape" d="m58 23v11c0 12.7-10 21-27 21-11.04 0-9.1-7.93-15-10.32-.6430805-.2581162-1.3143977-.4393719-2-.54-.6622529-.0963807-1.330778-.1431774-2-.14-.34 0-.68-.01-1-.02-.71-.02-1.38-.07-2-.15-9-1.1-9-7.38-9-12.83v-11z" fill="#805333"/><path id="Shape" d="m11 37v6.98c-.71-.02-1.38-.07-2-.15v-6.83c0-.5522847.44771525-1 1-1 .5522847 0 1 .4477153 1 1z" fill="#603e26"/><path id="Shape" d="m16 41.05v3.63c-.6430805-.2581162-1.3143977-.4393719-2-.54v-3.09c0-.5522847.4477153-1 1-1s1 .4477153 1 1z" fill="#603e26"/><path id="Shape" d="m58 23c0 12.7-10 21-27 21-13 0-8-11-19-11-12 0-12-7-12-13 0-12.7 12.984-20 29-20s29 10.3 29 23z" fill="#a56a43"/><path id="Shape" d="m54 23c.0021004.4942081-.0212639.9881963-.07 1.48-.59 7.62-5.87 12.8-14.69 14.7-1.1231291.2440694-2.2579222.4309765-3.4.56-1.6072953.1759643-3.2231036.2627639-4.84.26-1.5941527.1298921-3.1911169-.2145511-4.59-.99h-.01c-.5516936-.3798764-1.0323368-.85375-1.42-1.4-.36-.47-.7-1-1.07-1.59-.8937283-1.5552685-2.0239006-2.96208-3.35-4.17-.508377-.4439882-1.0574722-.8390689-1.64-1.18-2.1141653-1.1697386-4.5050265-1.7467239-6.92-1.67-.55 0-1.07-.01-1.55-.04-.8375371-.0427151-1.67024981-.1530746-2.49-.33-3.26-.79-3.84-2.81-3.94-6.24-.02-.73-.02-1.53-.02-2.39-.00355646-.1436264.00312713-.2873238.02-.43.21-7.52 6.35-12.14 14.23-14.23 1.1819529-.3210231 2.3803601-.5780631 3.59-.77 2.3675237-.3816643 4.761911-.57227893 7.16-.57 1.1390722-.00119905 2.2773841.05888779 3.41.18.83.08 1.65.2 2.46.36 2.661395.46895914 5.2434408 1.31056465 7.67 2.5.64.31 1.25.64 1.84 1 2.0936708 1.21727739 3.9749907 2.767593 5.57 4.59v.01c.44.52.85 1.05 1.23 1.6 1.5439101 2.193375 2.4915266 4.7502165 2.75 7.42.0485176.4449946.071888.8923723.07 1.34z" fill="#cb8252"/><g fill="#805333"><path id="Shape" d="m44.38 8.04-23.82 23.81c-.508377-.4439882-1.0574722-.8390689-1.64-1.18l23.62-23.63c.64.31 1.25.64 1.84 1z"/><path id="Shape" d="m51.18 14.24-24.77 24.77h-.01c-.5516936-.3798764-1.0323368-.85375-1.42-1.4l24.97-24.97c.44.52.85 1.05 1.23 1.6z"/><path id="Shape" d="m54 23c.0021004.4942081-.0212639.9881963-.07 1.48l-14.69 14.7c-1.1231291.2440694-2.2579222.4309765-3.4.56l18.09-18.08c.0485176.4449946.071888.8923723.07 1.34z"/><path id="Shape" d="m21.84 4.57-17.82 17.82c-.02-.73-.02-1.53-.02-2.39-.00355646-.1436264.00312713-.2873238.02-.43l14.23-14.23c1.1819529-.3210231 2.3803601-.5780631 3.59-.77z"/><path id="Shape" d="m34.87 4.54-24.42 24.42c-.8375371-.0427151-1.67024981-.1530746-2.49-.33l24.45-24.45c.83.08 1.65.2 2.46.36z"/></g></g></g></svg>