<?xml version="1.0" encoding="UTF-8" standalone="no"?>
<svg
   height="512pt"
   viewBox="0 -93 512 512"
   width="512pt"
   version="1.1"
   id="svg184"
   sodipodi:docname="cooked-bowl.svg"
   inkscape:version="1.2.2 (b0a84865, 2022-12-01)"
   xmlns:inkscape="http://www.inkscape.org/namespaces/inkscape"
   xmlns:sodipodi="http://sodipodi.sourceforge.net/DTD/sodipodi-0.dtd"
   xmlns="http://www.w3.org/2000/svg"
   xmlns:svg="http://www.w3.org/2000/svg">
  <defs
     id="defs188" />
  <sodipodi:namedview
     id="namedview186"
     pagecolor="#ffffff"
     bordercolor="#000000"
     borderopacity="0.25"
     inkscape:showpageshadow="2"
     inkscape:pageopacity="0.0"
     inkscape:pagecheckerboard="0"
     inkscape:deskcolor="#d1d1d1"
     inkscape:document-units="pt"
     showgrid="false"
     inkscape:zoom="1.1777344"
     inkscape:cx="320.95522"
     inkscape:cy="238.5937"
     inkscape:window-width="1920"
     inkscape:window-height="928"
     inkscape:window-x="0"
     inkscape:window-y="25"
     inkscape:window-maximized="1"
     inkscape:current-layer="svg184" />
  <path
     d="m511.992188 69.132812c0-39.714843-98.597657-62.855468-208.46875-68.019531-15.695313-.734375-31.621094-1.113281-47.515626-1.113281-15.898437 0-31.824218.367188-47.53125 1.113281-109.871093 5.171875-208.476562 28.3125-208.476562 68.019531v1.441407c0 141.152343 114.84375 255.996093 256.003906 255.996093 141.152344 0 255.996094-114.84375 255.996094-255.996093v-1.441407c-.007812.007813-.007812.007813-.007812 0zm-19.339844.007813c-.011719 20.308594-92.195313 49.792969-236.65625 49.792969-144.460938 0-236.636719-29.496094-236.65625-49.792969.011718-20.308594 92.207031-49.792969 236.667968-49.792969 144.460938 0 236.632813 29.488282 236.644532 49.792969zm-236.648438 238.085937c-121.089844 0-221.171875-91.429687-234.972656-208.863281 41.570312 26.292969 138.699219 39.898438 234.972656 39.898438 96.277344 0 193.390625-13.617188 234.964844-39.898438-13.808594 117.441407-113.882812 208.863281-234.964844 208.863281zm0 0"
     id="path182" />
  <path
     style="fill:#784421;stroke-width:5.53701;stroke-linecap:round;stroke-linejoin:round"
     d="m 29.304475,256.72784 c -1.693915,1.38359 -0.01145,4.40065 -0.163697,6.26947 10.207836,70.51271 45.038893,137.19176 97.384952,185.57645 49.50517,46.77377 114.69776,76.26126 182.3805,83.32952 19.8982,2.19985 39.98753,1.17049 59.94318,0.4379 70.46202,-5.96384 138.36335,-36.86984 189.44777,-85.71958 52.1336,-49.37945 86.97467,-116.97649 95.7297,-188.33179 0.41866,-1.80321 -1.4649,-1.85723 -2.49542,-0.83141 -33.80917,18.14047 -71.46033,27.32428 -108.91022,34.4652 -84.88427,15.36889 -171.58707,18.19376 -257.66073,15.28674 -62.1527,-2.93865 -124.53164,-8.84069 -185.002815,-24.03225 -23.791468,-6.06773 -47.193729,-14.07774 -68.854378,-25.7748 -0.594385,-0.19304 -1.154188,-0.67281 -1.798842,-0.67545 z"
     id="path585"
     transform="matrix(0.75,0,0,0.75,0,-93)" />
  <path
     style="fill:#502d16;stroke-width:5.53701;stroke-linecap:round;stroke-linejoin:round"
     d="m 339.7607,149.96527 c -76.95453,0.34969 -154.41383,5.46443 -229.47674,23.2838 -23.982682,6.16172 -48.306604,12.89577 -69.767331,25.59835 -6.411963,4.20483 -14.399888,9.68323 -14.393548,18.22381 1.304027,7.69661 8.620427,12.39902 14.593605,16.48391 21.514852,12.80074 45.969391,19.48455 70.040604,25.6454 64.79272,15.39882 131.4988,21.06312 197.93856,22.93875 43.65747,0.48152 87.37436,0.29003 130.91349,-3.32932 53.41219,-4.36591 107.02072,-11.19617 158.47283,-26.68829 17.97765,-5.865 36.61017,-12.01497 51.43844,-24.17445 4.5734,-3.78911 9.2772,-10.22649 6.0272,-16.26315 C 650.05929,202.13651 639.4533,197.2145 630.0263,192.38699 597.94303,177.75013 563.11796,170.48954 528.59185,164.24505 466.27335,153.66154 402.91639,149.91212 339.7607,149.96527 Z"
     id="path667"
     transform="matrix(0.75,0,0,0.75,0,-93)" />
</svg>
