<svg id="&#x421;&#x43B;&#x43E;&#x439;_1" enable-background="new 0 0 2000 2000" viewBox="0 0 2000 2000" xmlns="http://www.w3.org/2000/svg"><g><g><g><path d="m1383.974 1883.804 29.833-.947c6.492-.206 11.137-7.187 9.547-14.431-18.416-83.941-61.817-310.05-24.12-427.025 34.83-108.099 3.664-216.828-8.946-253.069-1.313-3.772-4.216-6.437-7.692-7.173l-32.941-6.968c-7.691-1.627-13.992 6.751-11.417 15.237 17.762 58.537 40.12 165.282 8.056 264.745-36.561 113.459 11.661 350.343 27.424 420.787 1.195 5.344 5.463 8.996 10.256 8.844z" fill="#82a821"/><g fill="#4b3b36"><g><path d="m1313.861 1217.89c11.636 26.874 19.67 53.695 25.826 81.641 6.039 27.812 9.538 56.396 8.927 85.203-.476 28.761-4.662 57.758-13.689 85.517l-7.116 20.297-6.066 18.34c-2.764 12.825-6.308 25.532-7.483 38.968-6.932 53.234-3.984 108.467 1.492 162.958l4.268 41.003c1.651 13.659 3.223 27.343 5.123 40.993 1.354 13.745 2.998 27.466 4.727 41.193 1.429 13.793 3.1 27.548 4.368 41.467-23.4-51.47-35.879-106.312-43.01-161.796-6.815-55.544-11.334-111.814-5.266-169.232.676-7.169 1.369-14.338 2.991-21.549 1.479-7.192 2.532-14.421 4.41-21.59l7.161-21.419 6.623-18.671c8.079-24.488 12.033-50.532 12.586-76.86.911-52.516-9.551-106.919-27.822-156.535l-.369-.996c-2.295-6.231.898-13.144 7.129-15.439 6.008-2.212 12.666.709 15.19 6.507z"/><path d="m1398.315 1236.499c12.105 26.061 19.543 52.438 24.781 79.965 5.083 27.399 7.206 55.588 5.051 83.742-1.961 28.111-7.56 56.296-17.877 82.898-2.617 7.128-3.974 12.275-5.967 18.333l-2.809 8.774c-.801 3-1.217 6.193-1.888 9.269-1.24 6.21-2.744 12.33-3.811 18.618l-2.31 19.199c-1.691 12.77-1.709 25.964-2.524 38.96.177 13.151-.389 26.254.374 39.467.823 26.379 3.021 52.843 5.946 79.255 5.585 52.924 12.17 105.752 13.799 160.491-17.64-51.153-28.433-104.261-36.151-157.796-3.475-26.832-6.226-53.803-7.578-80.95-1.028-13.538-.718-27.208-1.137-40.819.581-13.665.364-27.334 1.893-41.041 1.512-27.212 8.366-55.412 17.623-81.22 9.316-24.089 14.365-49.724 16.118-75.534 1.629-25.832.394-51.914-3.497-77.675-4.046-25.542-10.808-51.573-20.292-74.811l-.102-.251c-2.317-5.678.406-12.162 6.086-14.481 5.509-2.245 11.785.274 14.272 5.607z"/></g><g><g><path d="m1291.948 1677.583c-6.979-8.609-16.582-18.276-26.615-25.622-10.179-7.538-20.753-14.668-32.299-20.158-11.541-5.463-23.527-9.951-35.796-13.889-6.296-2-12.145-3.159-19.062-5.193-7.403-2.401-15.113-3.998-21.923-7.792-14.402-6.014-26.425-15.933-36.999-26.453-10.322-10.845-18.633-23.056-25.565-35.703-6.508-12.905-11.691-26.206-15.827-39.678-3.739-13.609-6.56-27.432-7.249-41.407 11.02 25.454 23.614 49.659 39.416 70.783 7.71 10.66 16.508 20.187 25.739 28.799 4.906 3.901 9.668 8.065 14.924 11.242l7.782 4.938c2.676 1.464 5.537 2.526 8.279 3.833 5.378 2.962 11.472 3.829 17.216 5.676 6.333 1.72 13.918 3.084 20.728 5.071 14.028 3.688 27.478 9.506 40.339 16.318 25.692 13.97 48.587 32.772 63.633 59.581 2.597 4.626.95 10.48-3.674 13.075-4.143 2.325-9.271 1.248-12.162-2.325z"/><path d="m1121.175 1569.643c-6.543.882-12.736 1.208-19.129 1.235-6.351-.017-12.714-.358-19.059-1.06-12.499-1.629-25.767-4.166-36.21-11.551 6.119 1.447 12.22 1.509 18.226 1.443 6.019-.165 12.018-.591 17.989-1.434 5.966-.668 11.913-1.581 17.835-2.602l17.555-2.983.204-.035c4.679-.795 9.117 2.355 9.913 7.033.793 4.679-2.355 9.116-7.034 9.911-.085.013-.205.032-.29.043z"/><path d="m1190.683 1607.365c-6.465-11.447-11.384-23.587-15.834-36.004-4.4-12.442-8.234-25.177-9.82-39.172 9.79 9.773 17.336 20.809 24.315 32.137 6.929 11.353 13.387 22.983 18.301 35.306 1.908 4.785-.424 10.211-5.211 12.119-4.39 1.75-9.319-.069-11.576-4.074z"/></g><g><path d="m1371.905 1668.417c17.909-27.878 39.88-52.285 65.167-73.691 6.233-5.422 12.826-10.485 19.536-15.376 7.007-4.512 13.849-9.254 21.264-13.188 7.156-4.32 14.914-7.673 22.482-11.314l22.818-8.788c28.236-10.459 53.91-29.302 77.17-50.367 11.94-10.322 23.1-21.67 33.838-33.438 11.037-11.555 21.392-23.779 31.566-36.325-14.148 29.155-32.846 56.054-54.641 80.637-11.027 12.186-23.065 23.592-36.348 33.783-13.235 10.12-27.353 19.91-43.586 26.1l-21.92 8.901c-6.755 3.456-13.649 6.536-20.119 10.636-13.148 7.681-25.597 16.746-37.717 26.328-12.103 9.616-23.509 20.217-34.502 31.269-11.107 10.828-21.651 22.823-31.361 34.39l-.254.306c-2.961 3.524-8.216 3.982-11.741 1.024-3.251-2.73-3.892-7.412-1.652-10.887z"/><path d="m1577.953 1517.846c7.024.745 14.457 1.644 21.636 2.771 7.244 1.018 14.482 2.214 21.736 3.113 7.246.988 14.542 1.886 21.873 2.39 7.336.419 14.744.828 22.549.125-12.978 9.198-29.451 12.23-44.883 13.436-15.707.969-31.157.059-46.512-4.05-4.849-1.297-7.73-6.28-6.433-11.127 1.175-4.385 5.36-7.16 9.738-6.691z"/><path d="m1479.88 1570.47c-.045-7.181.636-13.839 1.736-20.673 1.18-6.772 2.701-13.498 4.829-20.115 2.16-6.6 4.45-13.191 8.062-19.342 3.485-6.135 7.93-12.015 13.731-16.298-1.05 7.106-1.571 13.609-2.282 20.043l-1.878 19.169-1.532 19.164c-.526 6.329-1.155 12.883-1.893 18.951l-.035.292c-.693 5.706-5.882 9.769-11.586 9.076-5.261-.64-9.125-5.103-9.152-10.267z"/></g></g></g></g><g><g><path d="m510.482 1850.261h26.558c3.898 0 7.433-2.153 9.145-5.655 29.058-59.426 149.284-329.16 69.513-572.815-53.018-162.142-56.858-295.25-48.667-384.798.562-6.142-4.322-11.357-10.487-11.157l-27.478.89c-5.11.166-9.343 4.002-9.852 9.089-9.023 90.099-7.245 223.763 43.324 378.462 76.756 234.431-20.808 483.932-61.362 571.565-3.129 6.766 1.852 14.419 9.306 14.419z" fill="#82a821"/><g fill="#4b3b36"><g><path d="m488.237 1875.471c10.985-42.107 24.13-81.893 37.358-121.879 13.696-39.774 24.347-80.479 33.22-121.44 3.684-20.623 8.157-41.123 10.304-61.935 1.232-10.376 2.893-20.715 3.786-31.111l2.04-31.224 1.003-15.602-.092-15.606-.16-31.191c-.252-10.379-1.606-20.681-2.342-31.017-1.137-10.288-1.175-20.737-3.195-30.882l-5.111-30.572-2.549-15.285-4.046-14.922-8.049-29.857c-2.509-9.834-6.196-20.546-9.232-30.778-12.409-41.48-22.162-83.768-29.102-126.532-13.347-85.626-14.482-173.074-3.163-258.98.841-6.393 6.707-10.893 13.1-10.051 6.328.834 10.796 6.619 10.072 12.934-9.651 83.692-6.076 168.637 7.328 251.685 6.625 41.567 15.989 82.711 27.947 123.101 6.366 19.811 11.886 40.94 17.45 61.94l4.185 15.724 2.654 16.031 5.233 32.07c1.956 10.667 1.903 21.539 2.948 32.297.641 10.787 1.886 21.561 2.018 32.353l-.227 32.384-.122 16.188-1.227 16.121-2.517 32.234c-1.058 10.716-2.886 21.334-4.293 32.005-2.499 21.409-7.326 42.388-11.384 63.502-19.546 83.293-44.145 167.427-93.835 238.295z"/><path d="m564.354 1875.471c13.195-41.13 27.348-80.854 41.179-120.895 13.968-39.964 24.724-80.942 33.744-122.179 3.811-20.76 8.276-41.414 10.514-62.387 1.247-10.46 3.033-20.87 3.846-31.363l2.148-31.491c.314-5.248.821-10.491.98-15.741l-.047-15.754-.075-31.495c-.419-10.474-1.609-20.898-2.37-31.344l-1.285-15.657-.641-7.828-1.32-7.729-5.148-30.934c-.93-5.138-1.536-10.353-2.731-15.43l-4.093-15.109-8.154-30.226c-2.709-10.077-6.248-20.545-9.329-30.799-12.399-41.325-22.439-83.387-29.78-125.952-7.443-42.553-11.452-85.695-12.646-128.89-1.235-43.195.678-86.519 6.368-129.464.875-6.613 6.947-11.262 13.559-10.386 6.528.864 11.145 6.792 10.416 13.306l-.013.122c-9.336 83.2-4.38 167.926 10.322 250.496 7.136 41.371 16.907 82.315 28.989 122.585 3.061 10.171 6.328 19.795 9.212 30.417l8.623 31.869 4.288 15.94c1.252 5.347 1.911 10.811 2.891 16.211l5.403 32.495 1.287 8.13.554 8.199 1.1 16.39c.629 10.925 1.679 21.844 1.943 32.763l-.422 32.748-.225 16.364c-.249 5.441-.848 10.858-1.257 16.287l-2.739 32.539c-1.018 10.828-3.006 21.521-4.467 32.282-2.664 21.585-7.56 42.727-11.821 63.976-9.91 42.167-21.586 83.89-36.485 124.469-7.5 20.263-15.931 40.194-26.098 59.312-10.039 19.147-21.89 37.513-36.22 54.153z"/></g><g><g><path d="m631.14 1279.841c3.31-40.468 10.663-79.953 20.815-119.16 10.247-39.078 23.594-77.813 43.611-114.194 4.577-9.24 10.883-17.85 16.39-26.707 6.707-8.27 13.028-16.97 20.563-24.15 14.37-15.158 30.915-28.155 48.557-38.972 35.462-21.156 75.664-34.524 116.01-34.651-38.528 10.814-73.805 28.707-104.142 52.028-15.393 11.373-28.924 24.879-41.314 39.113-6.545 6.953-11.387 14.816-16.874 22.25-4.704 8.185-10.107 15.798-14.115 24.541l-6.423 12.77-5.705 13.249c-4.081 8.675-7.274 17.885-10.878 26.847-6.523 18.271-12.808 36.726-18.244 55.529-11.115 37.458-20.471 75.927-28.984 114.141l-.06.277c-1.17 5.249-6.373 8.557-11.621 7.387-4.804-1.072-7.982-5.525-7.586-10.298z"/><path d="m728.854 1010.164c-1.981-9.038-3.205-17.489-4.028-26.31-.885-8.732-1.13-17.525-1.015-26.298.441-17.443 2.816-35.46 10.601-50.983-2.053 17.095-.279 33.618 2.771 49.898 1.464 8.142 3.609 16.163 5.685 24.132 2.215 7.866 4.585 16.016 7.194 23.311l.052.147c2.06 5.763-.943 12.104-6.705 14.164s-12.105-.942-14.163-6.704c-.155-.429-.292-.924-.392-1.357z"/><path d="m699.124 1058.776c9.269-.186 17.909.58 26.789 1.71 8.818 1.044 17.553 2.991 26.218 5.15 8.62 2.371 17.161 5.262 25.273 9.259 8.007 4.075 15.864 9 21.504 15.879-8.007-3.694-16.193-5.597-24.43-6.944-8.191-1.463-16.542-2.079-24.874-2.432-8.294-.607-16.675-.437-25.003-.463l-24.734.476-.297.006c-6.251.12-11.417-4.85-11.539-11.102-.119-6.252 4.842-11.418 11.093-11.539z"/></g><g><path d="m580.794 1350.239c-10.85.389-19.503-1.164-28.66-3.693-9.022-2.383-17.64-5.783-25.979-9.703-16.533-8.103-31.711-18.641-44.971-30.942-27.313-23.827-47.375-54.686-64.723-84.37-17.084-29.054-36.201-56.91-57.949-82.765-10.968-12.83-22.544-25.204-34.943-36.822-12.295-11.775-25.54-22.601-40.179-31.849 32.94 11.536 61.99 32.937 87.542 56.907 25.405 24.364 47.455 52.168 66.252 81.862 18.299 29.018 36.782 56.28 60.892 78.691 11.776 11.319 24.664 21.293 38.58 29.282 6.929 4.016 14.118 7.602 21.571 10.264 7.209 2.708 15.575 4.879 21.958 5.612l1.292.148c4.784.549 8.216 4.874 7.668 9.658-.498 4.344-4.11 7.572-8.351 7.72z"/><path d="m392.76 1174.155c1.868-6.608 3.796-14.35 5.413-21.635 1.579-7.421 2.916-14.899 3.826-22.475.933-7.585 1.334-15.225 1.339-23.033.14-7.861-.621-15.723-1.372-24.199 5.168 6.56 9.688 14.101 12.285 22.275 2.704 8.129 4.52 16.695 4.939 25.29.566 8.597.284 17.268-1.02 25.773-1.317 8.622-3.332 16.637-6.997 25.24-2.138 5.022-7.942 7.36-12.966 5.222-4.629-1.972-6.979-7.062-5.64-11.781z"/><path d="m445.329 1258.762c-7.58-1.859-15.854-3.637-23.849-5.277-8.084-1.498-16.183-2.866-24.307-3.789-8.147-.904-16.236-1.049-24.292-.676-8.049.467-16.148 1.559-23.933 5.777 4.732-7.67 13.362-12.522 21.831-15.606 8.628-3.114 17.67-4.489 26.562-5.047 8.922-.674 17.862-.755 26.682.002 8.907.626 17.458 1.762 26.48 3.808 5.774 1.31 9.394 7.053 8.084 12.827s-7.052 9.394-12.826 8.084c-.042-.009-.085-.019-.127-.03z"/></g><g><path d="m660.08 1532.104c13.522-8.119 27.735-18.274 40.157-29.328 12.754-10.93 24.519-22.955 35.47-35.629 10.913-12.715 20.9-26.228 29.633-40.542 4.46-7.104 8.606-14.39 12.487-21.848l12.759-23.691c18.725-31.357 42.362-59.671 70.525-82.433 14.051-11.384 29.124-21.459 45.185-29.635 8.064-4.006 16.405-7.497 24.993-10.191 8.533-2.618 17.483-4.956 26.415-4.008-17.308 3.47-32.065 13.191-45.923 23.245-13.923 10.088-26.707 21.612-38.682 33.756-23.836 24.474-43.753 52.299-59.63 81.995l-11.392 23.096-6.101 12.308c-2.143 4.047-4.602 7.922-6.909 11.882-9.454 15.689-20.119 30.74-32.496 44.296-24.552 27.468-53.237 50.342-87.991 65.593-5.218 2.29-11.302-.084-13.592-5.301-2.11-4.81-.257-10.359 4.133-12.989z"/><path d="m809.132 1365.888c-4.44-7.659-7.221-15.021-9.803-22.897-2.267-7.878-4.233-15.847-5.148-24.016-2.053-16.18-1.31-33.222 4.727-48.001.763 15.875 4.921 30.286 10.566 44.048 3.051 6.805 5.994 13.553 9.506 20.045 3.24 6.473 6.969 13.205 10.147 19.034l.227.413c3.068 5.625.995 12.671-4.63 15.739-5.53 3.017-12.447 1.049-15.592-4.365z"/><path d="m774.264 1428.428c8.683-1.736 17.134-2.214 25.754-2.271 8.583-.019 17.206.617 25.797 1.901 8.593 1.093 17.196 3.321 25.547 6.406 8.132 3.283 16.819 7.72 22.052 15.307-8.705-1.903-16.59-1.939-24.771-1.972l-24.243.011c-8.117.141-16.236.222-24.4.186-8.127-.04-16.425-.119-24.457-.846l-.277-.026c-5.203-.47-9.039-5.07-8.568-10.272.387-4.271 3.565-7.621 7.566-8.424z"/></g><g><path d="m562.441 1679.166c-33.025-7.422-63.441-21.801-90.929-41.861-13.587-10.194-25.974-22.216-36.777-35.7-10.511-13.748-19.271-29.023-25.036-45.528-10.369-29.684-23.806-57.368-41.696-83.512-17.323-26.353-37.735-50.963-60.268-74.396 28.465 16.084 53.327 38.307 74.791 63.471 10.544 12.747 20.533 26.177 28.69 40.805 4.345 7.161 8.007 14.72 11.713 22.28 3.462 7.481 6.383 16.01 9.449 23.057 2.928 6.816 5.587 13.735 9.633 20.016 3.29 6.665 7.949 12.56 12.157 18.721 9.451 11.619 19.932 22.583 31.8 32.26 23.746 19.125 51.638 34.719 80.296 46.17l.519.207c3.774 1.508 5.61 5.789 4.103 9.563-1.361 3.403-4.98 5.229-8.445 4.447z"/><path d="m406.202 1543.784-17.421-7.882c-5.854-2.676-11.766-5.107-17.705-7.25-5.939-2.266-11.935-3.794-17.949-5.042-6.051-1.093-12.175-2.077-19.506-.62 3.964-6.45 11.758-10.264 19.226-11.641 7.61-1.551 15.23-1.011 22.474.102 7.276 1.172 14.342 3.029 21.112 5.49 6.8 2.582 13.113 5.48 19.563 9.498 4.672 2.91 6.101 9.055 3.19 13.725-2.674 4.293-8.079 5.847-12.564 3.813z"/><path d="m449.188 1607.951c2.721-15.252 6.807-30.609 10.404-45.846 1.828-7.643 3.692-15.285 5.31-22.992 1.544-7.729 3.385-15.457 4.093-23.786 3.986 7.437 5.974 15.899 7.024 24.186 1.093 8.347 1.285 16.702.908 24.962-.768 16.586-3.115 32.751-8.239 48.64-1.714 5.307-7.403 8.221-12.711 6.51-4.866-1.57-7.72-6.484-6.842-11.382z"/></g></g></g></g><g><path d="m1711.797 881.007c1.127-20.262-2.973-55.843-43.172-66.416-29.346-7.736-85.841 3.688-109.452 9.794-9.556 9.062-19.456 17.589-29.571 25.991-11.254 9.187-22.803 18.067-34.444 26.83-11.903 8.494-23.686 17.099-35.999 25.092-12.272 8.034-24.784 15.775-37.792 22.796 9.733-10.768 19.646-21.176 29.463-31.647l29.481-31.249 29.718-30.844c9.119-9.239 18.291-18.508 27.625-27.411 4.258-14.415 20.466-75.674.746-113.383-22.898-43.791-70.261-43.141-85.107-39.45-42.594 10.63-81.515 9.039-115.658-4.689-39.321-15.808-64.284-6.459-83.411 31.334-19.663 38.86-11.464 75.089-9.137 83.45 8.119 10.515 15.692 21.241 23.138 32.122 7.972 11.729 15.542 23.72 23.125 35.683 14.614 24.276 28.954 48.763 40.578 74.591-19.596-21.066-38.266-42.385-57.427-63.389l-28.174-31.813c-8.775-10.07-17.575-20.191-26.001-30.392-36.455-26.833-70.685-35.467-99.13-24.787-25.163 9.462-38.712 30.939-40.079 39.808-4.33 28.161-24.185 61.049-48.271 79.984-17.171 13.492-34.911 30.948-28.036 67.574 4.585 24.506 57.869 51.915 93.618 64.929 14.34-4.608 28.433-7.901 42.92-10.742 16.183-3.288 32.611-5.396 49.056-6.941 16.455-1.477 32.978-2.255 49.503-1.805 16.495.218 32.983 1.617 49.211 4.189-8.082 1.807-16.118 2.741-24.073 4.575-7.977 1.384-15.901 2.879-23.769 4.637-15.742 3.302-31.354 6.675-46.819 10.492-15.497 3.626-30.823 7.749-46.108 11.782-15.101 4.089-30.506 8.583-44.938 12.759-3.243 1.269-42.232 17.374-63.132 66.009-23.407 54.496 38.323 92.516 40.957 94.107 3.652 2.203 7.483 4.331 11.514 6.591 18.298 10.216 41.077 22.936 70.74 53.037 22.16 22.475 51.733 39.648 102.917-3.343 45.098-37.873 73.992-111.65 76.172-117.344.688-6.13 1.848-11.64 2.996-17.207 1.554-7.311 3.617-14.381 5.37-21.413 3.679-14.045 7.887-27.82 12.477-41.448.95 7.283 2.035 14.517 2.691 21.653.938 7.166 1.319 14.223 2.143 21.245l2.108 20.655c.511 6.648 1.242 13.38 1.901 18.821l.092.77c.035.393.22.741.22 1.142.07 40.27 39.88 115.395 104.553 146.268 53.589 25.572 75.619-3.324 96.93-31.278l4.25-5.536c12.282-15.78 28.665-22.757 46.026-30.139 18.279-7.777 37.176-15.827 55.604-35.91 28.615-31.217-26.874-94.272-28.016-95.552-16.957-3.591-33.606-7.911-50.104-12.817-19.157-5.619-38.044-12.029-56.809-18.765-37.413-13.759-74.354-28.954-109.479-48.152 20.037 3.224 39.598 7.457 59.114 11.769 19.521 4.29 38.832 9.068 58.143 13.824 35.924 9.2 71.71 18.891 106.646 30.825.566-.148 1.098-.386 1.689-.473.399-.057 42.494-6.638 66.429-30.148 21.751-21.354 26.041-54.798 9.578-74.561-23.179-27.812-27.529-36.69-25.334-76.084z" fill="#b3daf4"/><path d="m897.013 432.984c-15.662 7.194-31.561 13.625-47.727 19.5-18.72 6.884-37.749 12.982-56.896 18.749-38.391 11.235-77.355 21.052-117.526 26.615 17.837-9.308 35.964-17.533 54.107-25.667 18.131-8.155 36.42-15.8 54.696-23.463 34.227-13.974 68.669-27.475 103.917-38.692.349-.455.609-.959 1.018-1.379.269-.276 28.964-30.433 32.297-63.285 3.013-29.823-15.595-58.912-41.486-64.839-36.477-8.366-45.726-12.844-69.872-45.401-12.432-16.76-39.062-42.581-77.534-27.165-28.084 11.244-64.898 53.757-79.415 72.594-1.542 12.856-3.704 25.492-6.116 38.156-2.791 13.957-6.014 27.848-9.386 41.698-3.757 13.793-7.343 27.603-11.748 41.24-4.348 13.647-9.074 27.201-14.664 40.479.556-14.312 1.492-28.445 2.312-42.573l2.589-42.267 3.043-42.087c1.08-12.733 2.183-25.521 3.654-38.113-6.121-13.947-33.666-72.189-73.932-90.462-46.784-21.209-83.501 7.403-92.68 19.104-26.45 33.653-58.009 55.444-93.817 64.772-41.267 10.748-54.676 32.958-44.838 74.262 10.102 42.476 40.319 66.388 47.662 71.665 13.285 3.537 26.28 7.568 39.276 11.797 13.961 4.59 27.78 9.626 41.591 14.632 27.418 10.617 54.761 21.561 80.854 35.181-29.216-5.118-57.874-10.984-86.709-16.31l-43.01-8.568c-13.479-2.792-27.004-5.625-40.296-8.728-46.28.282-78.844 13.729-94.114 39.021-13.529 22.41-10.057 47.507-5.288 55.368 15.106 24.916 21.152 62.78 14.697 92.07-4.6 20.876-7.044 45.239 22.409 70.251 20.351 17.265 83.808 5.558 116.117-3.906 8.221-12.151 17.114-23.113 26.612-33.949 10.534-12.196 22.035-23.597 33.918-34.564 11.938-10.918 24.39-21.323 37.647-30.752 13.083-9.596 26.936-18.25 41.356-25.821-5.153 6.222-10.843 11.723-15.877 17.89-5.35 5.823-10.581 11.702-15.597 17.757-10.179 11.946-20.212 23.87-29.832 36.059-9.773 12.057-19.087 24.406-28.426 36.66-9.144 12.17-18.264 24.842-26.827 36.685-1.504 2.551-21.848 38.566-6.173 89.845 17.44 57.111 90.864 50.747 93.977 50.461 4.29-.419 8.68-.991 13.32-1.591 21.062-2.725 47.293-6.136 90.375.2 32.187 4.707 66.639.858 78.532-63.609 10.499-56.773-15.33-132.478-17.353-138.26-3.487-5.275-6.201-10.333-8.96-15.434-3.587-6.723-6.612-13.558-9.86-20.18-6.343-13.329-12.095-26.755-17.453-40.291 5.532 5.218 11.137 10.319 16.34 15.595 5.448 5.132 10.384 10.508 15.645 15.594l15.23 15.148c4.769 4.977 9.768 9.888 13.859 13.817l.643.619c.264.273.614.428.858.723 26.54 31.929 107.127 67.964 178.156 54.186 58.837-11.434 57.121-47.431 55.474-82.237l-.309-6.917c-.738-19.809 7.533-35.054 16.293-51.185 9.229-17.008 18.767-34.587 20.025-61.437 1.936-41.708-82.977-58.911-84.778-59.261z" fill="#b3daf4"/><path d="m976.393 598.795-.289-6.954c-.449-12.691 5.428-24.036 12.871-38.403 9.748-18.797 21.88-42.204 23.427-77.075 2.275-51.104-53.569-76.716-86.464-87.332 10.446-15.565 22.968-39.042 25.472-64.883 4.5-46.644-23.986-90.864-64.843-100.662-29.354-7.044-32.417-7.782-52.022-35.45-29.733-41.975-72.506-56.562-114.391-38.992-29.054 12.182-60.413 46.435-78.791 68.894-14.088-27.937-41.446-72.396-79.869-90.645-58.627-27.847-110.071 2.255-130.355 29.284-22.569 30.082-47.872 48.61-77.355 56.652-57.051 15.565-80.109 55.035-66.669 114.131 6.964 30.641 21.641 53.788 35.001 69.562-49.608 8.002-74.232 32.446-86.404 53.559-19.476 33.763-14.806 72.156-5.268 88.649 12.851 22.18 15.375 55.065 11.235 74.741-6.136 29.144-8.042 67.158 32.047 102.787 28.416 25.243 85.915 17.121 121.555 8.76-5.268 21.062-8.241 51.703 2.285 87.811 17.54 60.144 76.836 75.329 114.311 75.329 4.38 0 8.471-.21 12.162-.579 4.639-.459 9.379-1.107 14.377-1.776 20.095-2.744 42.903-5.827 81.595.12 62.798 9.678 100.941-21.132 113.383-91.573 6.625-37.555.928-80.538-5.887-112.605 45.168 28.056 111.358 45.906 168.907 34.183 84.539-17.19 81.576-82.473 79.979-117.533zm-30.92-5.857.309 7.244c1.646 36.447 3.362 74.142-55.474 86.115-71.029 14.427-151.616-23.307-178.156-56.741-.245-.309-.594-.471-.858-.757l-.643-.649c-4.091-4.114-9.089-9.256-13.859-14.468l-15.23-15.863c-5.261-5.325-10.197-10.955-15.645-16.329-5.203-5.525-10.808-10.867-16.34-16.331 5.358 14.174 11.11 28.234 17.453 42.191 3.248 6.934 6.273 14.092 9.86 21.132 2.759 5.342 5.473 10.638 8.96 16.162 2.023 6.054 27.852 85.329 17.353 144.779-11.893 67.507-46.345 71.538-78.532 66.609-43.082-6.635-69.313-3.063-90.375-.21-4.64.629-9.03 1.227-13.32 1.666-3.113.299-76.537 6.964-93.977-52.84-15.675-53.697 4.669-91.41 6.173-94.082 8.563-12.402 17.682-25.672 26.827-38.415 9.339-12.832 18.653-25.764 28.426-38.389 9.621-12.764 19.653-25.25 29.832-37.759 5.016-6.341 10.247-12.497 15.597-18.594 5.034-6.458 10.723-12.219 15.877-18.734-14.42 7.928-28.273 16.99-41.356 27.039-13.257 9.874-25.709 20.769-37.647 32.202-11.883 11.484-23.384 23.423-33.918 36.194-9.498 11.347-18.391 22.826-26.612 35.549-32.309 9.911-95.766 22.17-116.117 4.091-29.453-26.191-27.009-51.703-22.409-73.563 6.455-30.67.409-70.321-14.697-96.412-4.769-8.231-8.241-34.512 5.288-57.979 15.27-26.485 47.834-40.566 94.114-40.861 13.292 3.249 26.817 6.216 40.296 9.139l43.01 8.972c28.835 5.577 57.492 11.72 86.709 17.079-26.093-14.263-53.436-25.723-80.854-36.84-13.811-5.242-27.63-10.515-41.591-15.322-12.996-4.429-25.991-8.649-39.276-12.353-7.343-5.526-37.56-30.566-47.662-75.045-9.838-43.252 3.572-66.509 44.838-77.764 35.809-9.768 67.367-32.586 93.817-67.826 9.179-12.252 45.896-42.214 92.68-20.005 40.266 19.134 67.811 80.124 73.932 94.728-1.472 13.186-2.574 26.577-3.654 39.911l-3.043 44.071-2.589 44.26c-.821 14.794-1.756 29.593-2.312 44.58 5.59-13.903 10.317-28.098 14.664-42.388 4.405-14.28 7.992-28.741 11.748-43.185 3.372-14.503 6.595-29.049 9.386-43.665 2.412-13.261 4.575-26.494 6.116-39.956 14.517-19.725 51.331-64.243 79.415-76.018 38.473-16.143 65.103 10.895 77.534 28.446 24.145 34.093 33.394 38.782 69.872 47.542 25.891 6.206 44.499 36.667 41.486 67.896-3.332 34.402-32.027 65.981-32.297 66.27-.409.44-.669.968-1.018 1.444-35.248 11.746-69.69 25.884-103.917 40.517-18.276 8.024-36.565 16.03-54.696 24.569-18.144 8.518-36.27 17.131-54.107 26.878 40.172-5.826 79.136-16.106 117.526-27.871 19.147-6.039 38.176-12.424 56.896-19.633 16.166-6.152 32.065-12.887 47.727-20.42 1.801.367 86.714 18.381 84.778 62.057-1.257 28.116-10.795 46.525-20.025 64.334-8.76 16.894-17.031 32.858-16.293 53.601z" fill="#4b3b36"/><path d="m1761.225 918.042c-18.648-23.716-20.603-26.201-18.817-60.064 2.704-51.384-21.801-89.328-65.561-101.53-30.311-8.451-76.187-1.038-104.523 5.178 6.266-30.651 12.382-82.493-6.435-120.647-28.715-58.198-87.741-66.509-120.417-57.869-36.378 9.608-67.707 8.451-95.823-3.532-54.407-23.187-96.97-6.505-123.081 48.191-13.539 28.346-16.373 55.604-15.674 76.267-43.891-24.485-78.372-20.573-101.041-11.564-36.208 14.427-56.342 47.433-59.066 66.26-3.682 25.362-22.1 52.74-37.555 65.601-22.878 19.057-47.951 47.692-38.613 100.512 6.625 37.425 56.791 66.729 89.926 82.254-17.191 13.26-38.533 35.46-52.661 70.311-26.31 64.893 23.068 118.033 52.84 137.059 3.941 2.514 8.062 4.959 12.412 7.533 17.47 10.337 37.266 22.05 63.905 50.705 43.292 46.545 92.331 46.006 145.74-1.526 28.485-25.343 50.675-62.608 65.222-91.992 18.029 50.027 58.847 105.052 111.298 131.582 19.386 9.808 36.308 13.779 51.104 13.779 43.96-.01 69.193-35.061 84.529-56.372l4.081-5.637c7.513-10.237 19.167-15.485 33.913-22.14 19.316-8.71 43.342-19.546 66.18-45.936 33.484-38.682 5.557-93.408-13.659-122.133 17.84-5.737 42.224-16.383 60.214-35.1 32.465-33.784 37.543-86.135 11.562-119.19zm-33.673 97.958c-23.936 24.914-66.03 31.888-66.429 31.948-.591.092-1.123.344-1.689.501-34.936-12.646-70.722-22.916-106.646-32.665-19.311-5.04-38.622-10.103-58.143-14.649-19.516-4.57-39.076-9.056-59.114-12.472 35.125 20.344 72.067 36.445 109.479 51.026 18.765 7.138 37.652 13.931 56.809 19.885 16.498 5.198 33.147 9.777 50.104 13.582 1.142 1.357 56.632 68.176 28.016 101.256-18.428 21.282-37.325 29.813-55.604 38.054-17.361 7.822-33.744 15.216-46.026 31.938l-4.25 5.867c-21.312 29.623-43.342 60.244-96.93 33.145-64.673-32.716-104.483-112.326-104.553-154.999 0-.424-.185-.793-.22-1.21l-.092-.816c-.658-5.766-1.389-12.9-1.901-19.945l-2.108-21.888c-.823-7.441-1.205-14.919-2.143-22.513-.656-7.562-1.741-15.228-2.691-22.946-4.59 14.441-8.798 29.038-12.477 43.922-1.753 7.452-3.816 14.944-5.37 22.691-1.147 5.899-2.307 11.738-2.996 18.234-2.18 6.034-31.075 84.214-76.172 124.348-51.184 45.557-80.757 27.358-102.917 3.542-29.663-31.898-52.441-45.377-70.74-56.203-4.031-2.395-7.862-4.65-11.514-6.984-2.634-1.686-64.364-41.975-40.957-99.724 20.9-51.538 59.889-68.605 63.132-69.949 14.432-4.425 29.837-9.188 44.938-13.521 15.285-4.274 30.611-8.643 46.108-12.486 15.465-4.045 31.077-7.619 46.819-11.119 7.867-1.863 15.792-3.447 23.769-4.914 7.955-1.943 15.991-2.933 24.073-4.848-16.228-2.725-32.716-4.208-49.211-4.439-16.525-.476-33.047.348-49.503 1.913-16.445 1.638-32.873 3.871-49.056 7.356-14.487 3.011-28.58 6.5-42.92 11.383-35.749-13.79-89.033-42.835-93.618-68.804-6.874-38.812 10.865-57.31 28.036-71.608 24.085-20.065 43.94-54.916 48.271-84.758 1.367-9.399 14.916-32.157 40.079-42.184 28.446-11.317 62.675-2.168 99.13 26.267 8.426 10.809 17.226 21.535 26.001 32.206l28.174 33.712c19.162 22.258 37.832 44.85 57.427 67.173-11.624-27.369-25.964-53.318-40.578-79.043-7.583-12.678-15.153-25.384-23.125-37.813-7.446-11.53-15.019-22.897-23.138-34.039-2.327-8.86-10.526-47.252 9.137-88.431 19.127-40.049 44.09-49.957 83.411-33.205 34.143 14.547 73.064 16.233 115.658 4.969 14.846-3.911 62.209-4.599 85.107 41.805 19.72 39.959 3.512 104.875-.746 120.15-9.334 9.434-18.506 19.256-27.625 29.047l-29.718 32.685-29.481 33.114c-9.818 11.096-19.73 22.126-29.463 33.536 13.008-7.439 25.52-15.643 37.792-24.156 12.312-8.47 24.095-17.589 35.999-26.59 11.641-9.286 23.19-18.696 34.444-28.432 10.115-8.904 20.015-17.939 29.571-27.543 23.611-6.47 80.106-18.577 109.452-10.379 40.199 11.205 44.3 48.909 43.172 70.381-2.195 41.745 2.155 51.154 25.333 80.627 16.464 20.943 12.173 56.383-9.577 79.012z" fill="#4b3b36"/><g><g><path d="m578.697 432c-3.412-5.068-7.353-9.803-12.025-14.074-4.829-4.172-9.952-8.158-16.942-10.966-.461 7.517.943 13.856 2.642 20.007 1.853 6.054 4.44 11.644 7.555 16.899 3.128 5.248 6.797 10.152 11.491 14.41 4.689 4.26 10.042 8.102 17.473 10.63.905-7.796-.269-14.279-2.108-20.343-1.833-6.067-4.689-11.487-8.086-16.563z" fill="#4b3b36"/></g><g><path d="m646.376 423.652c-3.599 5.128-6.311 10.591-8.354 16.306-2.063 5.707-3.505 11.649-4.213 17.866-.529 6.283-.698 12.704 1.142 19.88 6.114-4.183 10.222-9.121 13.966-14.195 3.567-5.141 6.401-10.557 8.61-16.21 2.232-5.643 3.796-11.538 4.47-17.768.634-6.245.661-12.717-1.399-19.976-6.335 4.098-10.58 8.983-14.222 14.097z" fill="#4b3b36"/></g><g><path d="m624.136 502.8c-2.731-4.48-6.014-8.624-9.94-12.378-4.033-3.69-8.461-7.141-14.607-9.55-.703 6.564.312 12.084 1.721 17.366 1.514 5.217 3.672 10.044 6.383 14.535 2.706 4.495 5.991 8.638 9.918 12.393 4.023 3.695 8.461 7.139 14.629 9.535.723-6.576-.279-12.104-1.696-17.379-1.516-5.218-3.674-10.045-6.408-14.522z" fill="#4b3b36"/></g><g><path d="m568.929 497.382c-4.861-2.141-9.843-3.117-14.896-3.381-5.051-.267-10.16.021-15.36 1.221-5.216 1.343-10.464 3.014-15.926 6.82 4.592 4.82 9.399 7.508 14.24 9.868 4.854 2.216 9.803 3.52 14.806 4.269 5.004.753 10.077.793 15.27-.332 5.203-1.215 10.476-3.139 16.016-7.708-4.514-5.585-9.296-8.526-14.15-10.757z" fill="#4b3b36"/></g><g><path d="m1383.209 853.076c-5.024 5.611-7.852 11.453-10.337 17.332-2.3 5.898-3.739 11.887-4.552 17.942-.803 6.056-.965 12.181.077 18.432 1.035 6.251 2.851 12.583 7.114 19.174 5.545-5.555 8.643-11.369 10.963-17.265 2.325-5.895 3.445-11.918 3.929-18.009.466-6.091.312-12.248-.706-18.497-1.2-6.268-2.746-12.572-6.488-19.109z" fill="#4b3b36"/></g><g><path d="m1448.673 926.108c-6.006 1.79-11.521 4.395-16.667 7.61-5.158 3.198-9.975 6.964-14.385 11.402-4.313 4.601-8.426 9.533-11.434 16.303 7.391.511 13.674-.814 19.758-2.473 5.989-1.821 11.569-4.313 16.809-7.375 5.251-3.044 10.135-6.697 14.525-11.167 4.37-4.506 8.408-9.566 11.294-16.539-7.513-.713-13.873.487-19.9 2.239z" fill="#4b3b36"/></g><g><path d="m1376.482 941.98c-4.622 4.711-7.251 9.671-9.421 14.688-2.048 5.032-3.347 10.157-4.006 15.361-.663 5.204-.656 10.491.095 15.872.863 5.394 2.21 10.849 5.562 16.552 4.644-4.709 7.288-9.667 9.446-14.685 2.048-5.032 3.347-10.157 3.979-15.365.636-5.207.634-10.495-.12-15.875-.876-5.396-2.208-10.849-5.535-16.548z" fill="#4b3b36"/></g><g><path d="m1332.601 924.024c-3.796-3.342-7.982-6.286-12.806-8.569-4.924-2.18-10.077-4.124-16.722-4.529.611 6.63 2.716 11.72 5.051 16.574 2.432 4.749 5.505 8.84 8.967 12.532 3.457 3.693 7.413 6.872 12.185 9.21 4.834 2.274 10.164 4.035 17.343 3.887-.077-7.181-2.005-12.454-4.427-17.215-2.487-4.695-5.789-8.549-9.591-11.89z" fill="#4b3b36"/></g></g><g><g><path d="m428.986 346.96c-5.799-3.119-11.766-5.855-18.134-7.917-6.391-2.06-12.958-3.704-20.616-4.051 3.592 6.84 8.635 11.807 13.926 16.206 5.33 4.373 11.205 7.804 17.328 10.692 6.139 2.851 12.464 5.314 19.159 6.891 6.652 1.665 13.504 2.824 20.905 2.519-4.844-5.625-10.199-9.869-15.655-13.836-5.416-4.038-11.116-7.372-16.913-10.504z" fill="#4b3b36"/></g><g><path d="m493.971 334.993c-.032-7.401-1.823-13.548-3.929-19.468-2.26-5.811-5.163-11.162-8.611-16.126-3.43-4.975-7.441-9.535-12.235-13.537-4.827-3.977-10.182-7.575-17.368-9.869-.162 7.54 1.507 13.775 3.702 19.631 2.232 5.832 5.243 11.106 8.837 15.964 3.577 4.87 7.698 9.351 12.462 13.375 4.92 3.911 10.153 7.598 17.142 10.03z" fill="#4b3b36"/></g><g><path d="m557.699 241.731c-2.514-8.462-5.65-16.863-11.21-24.739-3.165 9.073-4.415 17.691-5.34 26.272-.773 8.554-.918 16.992-.521 25.386.394 8.4 1.327 16.746 2.933 25.148 1.749 8.418 3.709 16.836 7.79 25.634 4.911-8.297 7.466-16.994 9.057-25.696 1.527-8.713 2.01-17.483 1.482-26.177-.484-8.696-1.836-17.339-4.191-25.828z" fill="#4b3b36"/></g><g><path d="m742.291 242.278c-11.584 2.801-21.15 8.755-29.59 15.663-8.481 6.933-15.575 15.287-21.486 24.427-5.967 9.099-10.641 19.119-13.706 29.701-3.083 10.547-4.305 21.873-2.644 33.297 8.438-8.161 14.482-16.324 20.953-24.214 6.134-7.998 11.853-15.981 17.48-24.079 5.59-8.114 10.888-16.434 15.792-25.349 4.923-8.945 9.502-18.222 13.201-29.446z" fill="#4b3b36"/></g><g><path d="m728.677 353.146c7.156-1.242 12.801-3.957 17.952-7.153 5.161-3.188 9.573-7.104 13.584-11.409 4.006-4.314 7.613-9.013 10.688-14.234 2.953-5.335 5.69-10.884 7.049-17.776-6.852 1.538-12.33 4.417-17.585 7.51-5.138 3.208-9.743 6.938-13.951 11.052-4.201 4.123-8.002 8.635-11.055 13.876-3.06 5.235-5.627 10.948-6.682 18.134z" fill="#4b3b36"/></g><g><path d="m736.457 406.96c10.818-.027 20.77-2.291 30.296-5.354 9.484-3.163 18.536-7.222 27.104-12.095 8.588-4.837 16.7-10.491 24.238-17.02 7.493-6.59 14.555-13.886 20.154-23.234-10.811 1.21-20.346 4.181-29.548 7.69-9.162 3.562-17.877 7.789-26.226 12.636-8.359 4.843-16.415 10.171-24.135 16.21-7.68 6.138-15.158 12.655-21.883 21.167z" fill="#4b3b36"/></g><g><path d="m854.739 475.569c-8.867.549-17.638 1.979-26.266 4.297-8.605 2.466-17.134 5.481-25.235 10.732 9.189 2.862 18.009 3.911 26.769 4.622 8.743.581 17.368.534 25.926.056 8.563-.456 17.059-1.505 25.56-2.916 8.543-1.507 16.957-3.349 26.128-6.301-8.134-5.323-17.211-7.708-26.111-9.295-8.956-1.488-17.911-1.767-26.771-1.195z" fill="#4b3b36"/></g><g><path d="m847.999 535.162c-8.935-.998-17.937-1.349-27.001-.968-9.087.57-18.201 1.493-27.485 4.383 8.516 4.683 17.189 7.497 25.884 10.041 8.713 2.362 17.483 4.063 26.305 5.243 8.815 1.203 17.682 1.841 26.652 1.706 9.007-.086 17.889-.891 27.488-2.726-7.77-6.157-16.622-9.552-25.293-12.321-8.735-2.708-17.61-4.353-26.55-5.358z" fill="#4b3b36"/></g><g><path d="m796.002 602.16c-21.579-6.393-42.96-13.09-67.325-16.903 7.982 9.639 17.817 16.791 28.064 23.076 10.347 6.121 21.411 10.98 32.923 14.586 11.501 3.632 23.599 5.658 35.776 6.106 12.195.253 24.657-1.313 36.148-6.164-11.788-4.364-22.626-7.372-33.434-10.819z" fill="#4b3b36"/></g><g><path d="m516.737 653.905c-9.518 12.296-17.475 25.76-24.103 39.903-6.523 14.193-11.399 29.275-14.153 44.779-2.691 15.505-2.968 31.648.579 47.012 5.522-14.883 10.302-28.72 15.764-42.414 5.792-13.557 11.424-26.958 17.58-40.292l18.777-40.173c6.403-13.504 12.734-27.151 18.548-41.803-12.945 9.141-23.571 20.67-32.992 32.988z" fill="#4b3b36"/></g><g><path d="m579.555 657.874c-4.158 9.597-6.398 19.259-8.147 28.936-1.659 9.682-2.594 19.386-2.869 29.113-.297 9.727.008 19.473 1.015 29.242 1.137 9.774 2.679 19.562 6.109 29.412 4.081-9.599 6.271-19.263 8.057-28.939 1.654-9.682 2.607-19.386 2.961-29.11.372-9.723.085-19.468-.925-29.239-1.1-9.774-2.692-19.563-6.201-29.415z" fill="#4b3b36"/></g><g><path d="m649.576 692.884c-2.926 7.302-4.235 13.887-5.231 20.43-.885 6.51-1.295 12.856-1.217 19.18.085 6.329.524 12.63 1.417 19.089 1.13 6.509 2.143 13.037 5.031 20.4 5.373-5.661 8.628-12.227 10.796-18.948 2.13-6.745 3.125-13.714 3.091-20.646.017-6.937-.995-13.855-3.125-20.551-2.224-6.659-5.254-13.244-10.762-18.954z" fill="#4b3b36"/></g><g><path d="m397.041 598.835c-6.42 5.661-12.429 11.747-18.131 18.28-5.642 6.639-11.072 13.455-15.904 21.956 9.735-1.06 18.289-4.656 26.338-8.786 7.954-4.29 15.223-9.491 21.913-15.302 6.687-5.811 12.711-12.336 18.024-19.531 5.223-7.277 9.955-15.047 12.823-24.458-9.334 3.022-17.096 7.397-24.519 12.104-7.351 4.769-14.154 10.037-20.544 15.737z" fill="#4b3b36"/></g><g><path d="m375.999 483.779c9.449.193 18.935.444 28.59.056 9.671-.364 19.433-.823 29.735-2.963-8.91-5.514-18.426-8.966-28.144-11.469-9.745-2.35-19.71-3.814-29.773-3.889-10.047-.163-20.169.675-30.089 2.946-9.825 2.479-19.795 5.798-28.049 12.412l29.366 1.746z" fill="#4b3b36"/></g><g><path d="m407.919 545.917c7.673-4.405 14.951-9.303 22.514-15.769-9.646-2.97-19.172-2.678-28.186-1.669-9.037 1.146-17.74 3.34-26.073 6.397-8.351 3.024-16.35 6.932-23.933 11.778-7.553 4.919-14.797 10.576-21.005 18.504 9.987 1.165 19.024.263 27.8-1.262 8.74-1.601 17.141-3.947 25.253-7.007 8.122-3.046 15.987-6.66 23.63-10.972z" fill="#4b3b36"/></g></g><g><g><path d="m1325.702 731.126c-2.614-6.045-5.597-11.893-9.316-17.459-3.734-5.579-7.865-10.94-13.659-15.963-1.422 7.594-.549 14.617.876 21.349 1.469 6.736 3.948 13.07 6.959 19.134 3.051 6.044 6.485 11.899 10.758 17.288 4.186 5.431 8.843 10.59 14.836 14.941-.312-7.416-1.881-14.068-3.699-20.562-1.746-6.527-4.151-12.679-6.755-18.728z" fill="#4b3b36"/></g><g><path d="m1387.634 689.622c-4.802 5.814-7.361 11.74-9.269 17.695-1.866 5.959-2.776 11.964-2.968 18.003-.214 6.04.24 12.111 1.479 18.221 1.432 6.119 3.253 12.257 7.226 18.499 4.565-5.826 6.974-11.758 8.992-17.709 1.831-5.96 2.874-11.959 3.248-17.989.394-6.03.075-12.095-1.202-18.208-1.32-6.113-3.29-12.258-7.506-18.512z" fill="#4b3b36"/></g><g><path d="m1479.202 751.266c5.016-7.124 9.316-14.742 12.731-22.862 3.278-8.196 6.029-16.732 6.55-26.359-8.109 5.156-14.435 11.141-20.481 17.298-5.911 6.231-11.259 12.759-16.153 19.592-4.901 6.833-9.346 13.957-13.297 21.546-3.849 7.686-7.531 15.506-9.785 24.94 8.997-3.463 16.395-8.7 23.038-14.541 6.601-5.888 12.42-12.467 17.397-19.614z" fill="#4b3b36"/></g><g><path d="m1537.679 1138.628c-6.393-6.324-13.235-12.184-20.583-17.507-7.481-5.188-15.203-10.117-24.277-13.608 3.774 8.955 8.833 16.541 14.076 23.931 5.37 7.256 11.197 14.029 17.383 20.426 6.168 6.411 12.731 12.411 19.85 17.867 7.119 5.52 14.587 10.398 23.255 14.91-2.277-9.649-7.114-17.802-12.2-25.351-5.174-7.541-11.116-14.337-17.504-20.668z" fill="#4b3b36"/></g><g><path d="m1455.336 1158.936c-12.963-18.398-25.582-36.913-42.329-55.014.284 12.513 3.562 24.223 7.703 35.508 4.32 11.218 9.987 21.893 16.782 31.86 6.77 9.981 15.001 19.074 24.277 26.979 9.409 7.76 20.157 14.261 32.18 17.583-6.543-10.734-13.18-19.816-19.518-29.223z" fill="#4b3b36"/></g><g><path d="m1250.515 1020.915c-15.824-.858-31.309 1.595-46.34 5.415-15.091 3.743-29.685 9.371-43.656 16.354-13.918 7.089-27.099 15.894-38.872 26.349-11.728 10.494-21.958 22.987-28.702 37.238 13.562-8.251 25.891-16.141 38.67-23.495 12.953-7.042 25.682-14.061 38.78-20.704l39.645-19.869c13.399-6.621 26.828-13.4 40.475-21.288z" fill="#4b3b36"/></g><g><path d="m1250.991 1068.402c-9.214 4.95-16.964 11.14-24.337 17.647-7.304 6.565-14.056 13.598-20.307 21.057-6.263 7.447-12.068 15.28-17.338 23.569-5.168 8.374-10.03 17.008-13.447 26.862 9.152-5.001 16.864-11.223 24.267-17.706 7.301-6.568 14.068-13.589 20.374-20.999 6.323-7.397 12.142-15.219 17.411-23.51 5.198-8.348 10.02-17.014 13.377-26.92z" fill="#4b3b36"/></g><g><path d="m1267.432 1152.075c-4.732 4.558-8.987 9.281-12.848 14.291-3.859 5.019-7.423 10.233-10.728 15.853-3.15 5.807-6.406 11.556-8.705 19.124 7.725-1.11 14.35-4.242 20.219-8.169 5.854-3.971 10.958-8.82 15.23-14.279 4.315-5.432 7.81-11.487 10.294-18.059 2.385-6.604 4.091-13.65 3.313-21.542-6.823 3.914-11.936 8.266-16.775 12.781z" fill="#4b3b36"/></g><g><path d="m1145.568 930.38c8.852-.409 17.622-1.793 26.253-4.143 8.61-2.469 17.141-5.628 25.228-11.233-9.197-3.419-17.999-4.8-26.74-5.711-8.725-.818-17.328-.904-25.876-.397-8.546.459-17.036 1.507-25.56 3.095-8.543 1.709-17.029 3.688-26.093 7.358 8.294 5.207 17.234 7.691 26.111 9.444 8.899 1.567 17.827 1.996 26.677 1.587z" fill="#4b3b36"/></g><g><path d="m1199.283 805.59c7.291 6.011 14.577 12.091 22.392 17.775 7.812 5.712 15.754 11.408 25.163 16.117-3.569-9.851-8.892-18.459-14.964-26.451-6.188-7.887-13.095-15.216-20.945-21.515-7.777-6.358-16.238-11.979-25.43-16.35-9.244-4.148-19.122-7.727-29.7-7.659l21.955 19.583z" fill="#4b3b36"/></g><g><path d="m1160.444 868.083c8.261 2.648 16.672 4.689 25.343 6.048 8.748 1.302 17.498 1.976 27.44 1.593-5.727-8.312-13.38-13.99-21.077-18.79-7.8-4.706-15.986-8.382-24.42-11.152-8.426-2.806-17.124-4.703-26.078-5.605-8.975-.824-18.166-.878-27.954 1.49 7.111 7.108 14.762 12.004 22.589 16.251 7.849 4.164 15.896 7.534 24.157 10.165z" fill="#4b3b36"/></g><g><path d="m1587.091 855.381c-6.985 5.454-13.339 11.655-19.021 18.564-5.596 6.994-10.728 14.505-14.084 23.755 9.48-2.53 17.46-6.494 25.116-10.806 7.591-4.379 14.659-9.284 21.339-14.642 6.706-5.317 13.027-11.082 19.061-17.308 5.981-6.335 11.759-12.857 17.031-21.094-9.777.549-18.507 3.693-26.763 7.398-8.165 3.868-15.696 8.681-22.679 14.133z" fill="#4b3b36"/></g><g><path d="m1615.443 988.25c-9.425-.687-18.885-1.433-28.547-1.55-9.677-.142-19.45-.195-29.849 1.405 8.61 5.972 17.93 9.916 27.505 12.924 9.61 2.855 19.483 4.839 29.53 5.438 10.022.689 20.175.381 30.202-1.369 9.94-1.962 20.068-4.755 28.658-10.929l-29.237-3.278z" fill="#4b3b36"/></g><g><path d="m1610.984 914.805c-8.271 2.618-16.313 5.817-24.172 9.724-7.889 3.997-15.417 8.508-23.306 14.571 9.48 3.469 19.006 3.674 28.062 3.138 9.084-.672 17.889-2.408 26.371-5.026 8.497-2.584 16.689-6.067 24.516-10.51 7.798-4.518 15.328-9.79 21.943-17.383-9.912-1.685-18.985-1.255-27.826-.193-8.813 1.143-17.326 3.048-25.588 5.679z" fill="#4b3b36"/></g></g></g></g></g></g></svg>