<svg id="Layer_1" enable-background="new 0 0 53 53" height="512" viewBox="0 0 53 53" width="512" xmlns="http://www.w3.org/2000/svg"><g id="_x31_2"><g><path d="m48.6269569 22.6727123-.0100098 5.0299683-32.3899516 18.8200054-11.8699956-6.8499756.0099487-5.0300293v-.0100098h.0100098c.3227944-.1875648 3.9306388-2.2839699 3.7000127-2.1499634l-3.7199712-2.1500225.0099487-5.039978c6.4637837-3.7442112 20.2338161-11.7529831 32.3900146-18.8200073 1.7141876.9909329 12.3943558 7.163219 11.8699951 6.8599858l-.0100098 5.0299683-3.7099609 2.1600342c.1013666.0585837 3.8213487 2.2085853 3.7199693 2.1500239z" fill="#bf7d5a"/></g><g><g><g><g><g><path d="m48.6270828 22.6708736-.0142784 5.0364438-32.3847904 18.8199844.0142784-5.0364456z" fill="#aa6256"/></g><g><path d="m16.2422924 41.4908562-.0142784 5.0364456-11.8736439-6.8552513.0142784-5.0364456z" fill="#bf7d5a"/></g><g><path d="m48.6302299 22.6727047-11.7086143 6.8062115-1.6275291.9469109-11.8467255 6.875267s0 .0098763-.0098724.0098763l-1.0752068.6312523-6.1156578 3.5510902-.4438944-.2564735-.5326977-.3057823-10.899754-6.2932664.8581672-.5030746.7201157-.4142723 19.0770245-11.0871735 4.1429081-2.4068298s.0098743 0 .0197487-.0098724l7.5657024-4.3993855 3.5412178 2.0517387h.0098152l1.1146393.6411858.976532.5621967.6017494.3551521 1.3809318.7891121h.0098724l1.0160255.5918179 1.6670265.9667168.5523834.3155956z" fill="#dba660"/></g><g fill="#bf7d5a"><path d="m42.9978981 19.4274559c-.3847084.1380501-.7891083.2564754-1.1836967.3748379l-.049305.0196877c-.2860985.0888023-.5622597.1775455-.8483543.2663479-1.8840065.6016922-3.6990166 1.4204254-5.4153519 2.4068298-3.5214691 2.0319901-6.2340794 4.5966167-8.6507225 7.0725002l-.83848.8482933-.0986157-.0986157h-.0098743l.0888042.1282368c-2.8014145 2.870409-5.6915722 5.8394947-9.7358646 8.1673946-.7891121.4537697-1.6077843.8779144-2.4265165 1.2527542l-.0789289.0394936-.5030756-.3748398.2269135-.0986748c.7989855-.3649635 1.6078434-.7792358 2.3772078-1.2231331 3.9653645-2.2884636 6.8258991-5.2378006 9.5976925-8.0786514l.8581676-.8779144c2.2884655-2.3377724 5.0405712-5.0010757 8.7790203-7.1613045 1.7558289-1.0159645 3.6299629-1.8445702 5.5633354-2.4660091l.0789299-.029562c.2564125-.078928.5030136-.1577969.7693634-.2367268.2959099-.0986767.6016922-.1874199.8976021-.2860966z"/><path d="m36.9216156 29.4789162-1.6275291.9469109c-1.1639519.3156567-2.3082123.6707478-3.4228554 1.0653324-.5523834.1972942-1.0258389.3748398-1.4598579.5523853-.8680401.3550911-1.706461.7595482-2.466011 1.2034416-1.9925556 1.1540794-3.5510902 2.5547562-4.4980011 4.0541077 0 0 0 .0098763-.0098724.0098763l-1.0752068.6312523c.1381092-.2959099.3057823-.5819473.483387-.868042.9962177-1.5683479 2.6139355-3.0380821 4.6952343-4.2316513.7891712-.4635811 1.6473389-.8779144 2.544939-1.2428799.4833298-.1972923.9666576-.3847122 1.4993534-.5622578 1.7064609-.6016922 3.4918498-1.1244545 5.33642-1.5584755z"/><path d="m13.4019175 29.3911839 1.6275282-.9469166c1.16395-.3156586 2.3082104-.6707535 3.4228516-1.0653419.5523834-.1972942 1.0258369-.3748417 1.4598579-.5523891.8680401-.355093 1.7064571-.7595558 2.4660072-1.203455 1.9925518-1.1540852 3.5510845-2.5547733 4.4979897-4.0541401 0 0 0-.0098743.0098743-.0098743l1.0752048-.631258c-.1381111.2959118-.3057804.5819492-.483387.8680477-.996212 1.5683632-2.6139259 3.0381088-4.6952209 4.2316895-.7891712.4635849-1.647337.8779202-2.5449371 1.2428894-.4833279.1972942-.9666557.3847141-1.4993515.5622616-1.7064591.6016958-3.4918471 1.1244638-5.3364172 1.5584868z"/><path d="m47.6241379 22.0906982c-.1183624.0789299-.2466011.1578598-.3649635.2269154l-3.1663818 1.8248234c-1.1047668.6313133-2.2095337 1.2724991-3.3143005 1.9037533-1.7262077.9765301-3.6497078 2.081358-5.9579201 2.8507214-.1282387.0493088-.2860374.0986176-.4932022.0986176-.1972351 0-.3748398-.0493088-.5128899-.1479244-.2564735-.1676731-.3156586-.4537678-.2663498-.6608753.1775475-.6313133.8976021-1.1146412 1.5782242-1.5092278.1381111-.078928.2762222-.1577969.4143333-.2367268.7101822-.3945847 1.4796066-.8286057 2.406826-1.3612423.3550911-.2071667.7101822-.4142723 1.0652733-.621439.7793007-.4438953 1.6571541-.9567833 2.2983398-1.5387878.1775475-.1577988.3354034-.325531.4734535-.4635811.2269173-.2367878.4636421-.4833889.7496796-.7003689.2170372-.1775455.483326-.3550911.8187294-.5523853l.10849-.0591812c.1775475-.10849.3748398-.2071667.5622597-.3057823-2.5646286.6707478-4.9418945 1.6177177-6.9442635 2.7717934-.542511.3156567-1.0653343.6509991-1.5486641.9864044-.7694206.5523834-1.4796028 1.1442013-2.1701012 1.7163334l-.10849.0888023-9.8739147 8.3055077c-2.5153179 2.11092-5.1194401 4.300705-7.5460157 6.5102425l-.0295601.0197487-.0394955.0295601-.6213789-.2268524.1281767-.10849.0493689-.0493088c2.5448799-2.2983398 5.2574902-4.5868034 7.8813591-6.7963409l9.5582581-8.0293446c.6904984-.5721302 1.4697342-1.2330055 2.3180275-1.8346977.4932022-.3452168 1.0357132-.6904945 1.5979691-1.0160236 2.2095375-1.2823143 4.8432808-2.2982788 7.7038155-2.9887733h.0098724l1.0160255.5918179c-.5425682.2170391-1.0554581.4636402-1.5289726.7398033l-.10849.0591812c-.3057861.1775455-.542511.3354034-.7496796.5030766-.2466011.187418-.4635811.404459-.6608734.6115646l-.0789299.0789299c-.1479225.1479855-.2860336.3057823-.4537048.4537678-.651062.5918179-1.5191002 1.0948944-2.3575211 1.5880966l-1.1146431.6509991c-.9272194.5326977-1.6867714.9568443-2.3969536 1.3513699l-.0493088.0296211c-.1282387.0690556-.2564735.1479244-.3847122.21698-.5820045.3354034-1.1935692.7398033-1.3218079 1.2034435-.0098114.0591831.0098724.1381111.0591812.1676731.0296211.0197468.0493698.0197468.0789299.0296211.0394936 0 .10849-.0296211.2071648-.0591831 2.2687187-.7496758 4.1527252-1.8347569 5.8197517-2.7915401 1.1048279-.6313133 2.2095947-1.27244 3.3143616-1.9037533l3.2846832-1.89394c.0394936-.0196857.0789299-.0493069.108551-.0689945z"/><path d="m18.5449009 32.6945457c-.1577969-.0986176-.3550911-.1577988-.5622578-.1577988-.0098133 0-.0098133 0-.0196857 0-.2663498 0-.4833298.0789299-.6313133.1381111l-.6016922.2367249c-1.0653334.4043999-2.1306667.8187332-3.1861267 1.2330055-.9666567.3748398-1.92344.759552-2.8802834 1.1343918-.0986166.0394325-.2071066.0788689-.3255301.1281738l-.0986166.0296211c-.3353434.1183662-.7891111.2762222-1.1343889.4833298-.2367277.1282387-.3945255.2663498-.4932022.4241447-.1775455.2959099-.0788689.6214409.2367878.8483543.2367268.1676712.5819445.2564163.9370356.2564163.0789289 0 .1479845 0 .2269144-.0098152 1.0357122-.0888023 2.14048-.4438934 2.9887733-.7398033 1.0061512-.3551521 2.002429-.808857 3.0282679-1.4007378.8187313-.4734535 1.568409-.9765282 2.1996613-1.4105492.217041-.1479263.5129509-.3550911.5721321-.6313133.0493087-.2071073-.0493088-.4241445-.2564755-.5622557zm-.7693634.8187294c-.6608734.4438934-1.3809891.9272232-2.1602278 1.3809929-.9864044.5721283-1.9432478 1.0060883-2.9000301 1.351368-.8088589.2761612-1.8544455.6016922-2.7915411.6904945-.2466011.0196877-.4734545-.0197487-.6115656-.1183624-.1775455-.1183662-.10849-.217041-.0887432-.2564774.0394344-.0690536.138051-.1479836.2959099-.2367249.2564745-.1578598.6313124-.2860985.9567833-.4044609l.0493078-.0197487c.1776056-.0591812.3255301-.1183624.4636412-.1676712.9567833-.3847122 1.9136267-.759491 2.87041-1.1442032l.0690556-.0197449c1.0357122-.4043999 2.0714855-.8088608 3.1170712-1.2132607l.6016922-.2269135c.1183624-.049305.21698-.0788689.3057823-.0887413l.1577988.0493088c.0296211.0296211.0394936.0591812.0394936.0789299-.0296214.0986139-.236727.2466013-.3748381.345215z"/><path d="m41.4196167 18.510107-.0295601.0196877-.0690575-.0493088c-.4537659-.2761612-1.3908615-.078928-2.0517349.1775455-1.1146431.434021-2.1996613.94697-3.3044319 1.5880966-1.8248825 1.05546-3.4228516 2.2589035-4.9715157 3.4327278l-.0887413.0690556c-.7102432.5326366-1.4401722 1.0850201-2.1898499 1.6078434-1.3414936.9567833-2.8309746 1.9135666-4.4091969 2.8211021-4.14291 2.3870811-9.0650568 4.6163635-14.648078 6.6187325-.9370966.3354034-1.7558289.5030746-2.43645.5030746-.4635811 0-.8680406-.0690536-1.2033844-.2268524-.4537673-.1972923-.7299895-.5523834-.7891712-.9370956l.7201157-.4142723c-.0098734.0197449-.0098734.0295601-.0197473.0493088-.0986161.2564735-.0394344.6509972.4438939.8680382.6313133.2860374 1.6374044.1874199 2.9789-.2959099 5.5534601-1.9925537 10.4460459-4.2020893 14.5494623-6.5793571 1.5585346-.8976021 3.0282669-1.8346977 4.3599491-2.7717934.7496777-.5326366 1.489481-1.0948944 2.1996632-1.6374054l.0591812-.0394344c1.5486603-1.1738224 3.1565056-2.3871403 5.0208244-3.4622879 1.1343269-.6608734 2.24897-1.1935711 3.4129181-1.6374645.2269135-.0887432.759552-.2761612 1.3415565-.3452168h.0098152z"/></g></g><g><g><path d="m48.6270828 13.3285589-.0142784 5.0364447-32.3847904 18.8199825.0142784-5.0364418z" fill="#aa6256"/></g><g><path d="m16.2422924 32.1485443-.0142784 5.0364418-11.8736439-6.8552513.0142784-5.0364437z" fill="#bf7d5a"/></g><g><path d="m48.6302299 13.33039-11.7086143 6.8062124-1.6275291.9469109-11.8467255 6.8752689s0 .0098724-.0098724.0098724l-1.0752068.6312542-6.1156578 3.5510922-.4438944-.2564774-.5326977-.3057823-10.899754-6.2932625.8581672-.5030766.7201156-.4142722 19.0770245-11.0871744 4.1429081-2.4068279s.0098743 0 .0197487-.0098743l7.5657024-4.399384 3.5412178 2.0517373h.0098152l1.1146393.6411867.976532.5621977.6017494.3551512 1.3809319.7891111h.0098724l1.0160255.5918188 1.6670265.9667168.5523834.3155966z" fill="#dba660"/></g><g fill="#bf7d5a"><path d="m42.9978981 10.0851421c-.3847084.138051-.7891083.2564745-1.1836967.3748388l-.049305.0196867c-.2860985.0888033-.5622597.1775455-.8483543.2663488-1.8840065.6016922-3.6990166 1.4204245-5.4153519 2.4068279-3.5214691 2.031991-6.2340794 4.5966177-8.6507225 7.0725012l-.83848.8482933-.0986156-.0986156h-.0098743l.0888042.1282368c-2.8014145 2.870409-5.6915722 5.8394966-9.7358646 8.1673946-.7891121.4537678-1.6077843.8779144-2.4265165 1.2527542l-.0789289.0394936-.5030756-.3748379.2269135-.0986767c.7989855-.3649654 1.6078434-.7792377 2.3772078-1.2231312 3.9653645-2.2884655 6.8258991-5.2378044 9.5976925-8.0786533l.8581676-.8779144c2.2884655-2.3377724 5.0405712-5.0010757 8.7790203-7.1613035 1.7558289-1.0159655 3.6299629-1.8445711 5.5633354-2.4660101l.0789299-.029561c.2564125-.0789289.5030136-.1577988.7693634-.2367277.2959099-.0986767.6016922-.1874189.8976021-.2860956z"/><path d="m36.9216156 20.1366024-1.6275291.9469109c-1.1639519.3156567-2.3082123.6707478-3.4228554 1.0653324-.5523834.1972942-1.0258389.3748398-1.4598579.5523853-.8680401.3550911-1.706461.7595501-2.466011 1.2034435-1.9925556 1.1540756-3.5510902 2.5547523-4.4980011 4.0541077 0 0 0 .0098724-.0098724.0098724l-1.0752068.6312542c.1381092-.2959099.3057823-.5819454.483387-.868042.9962177-1.5683479 2.6139355-3.0380802 4.6952343-4.2316513.7891712-.4635811 1.6473389-.8779144 2.544939-1.2428799.4833298-.1972923.9666576-.3847122 1.4993534-.5622578 1.7064609-.6016921 3.4918498-1.1244544 5.33642-1.5584754z"/><path d="m13.4019175 20.0488701 1.6275282-.9469166c1.16395-.3156586 2.3082104-.6707535 3.4228516-1.0653419.5523834-.1972942 1.0258369-.3748417 1.4598579-.5523891.8680401-.355093 1.7064571-.7595558 2.4660072-1.2034531 1.9925518-1.1540871 3.5510845-2.5547762 4.4979897-4.054143 0 0 0-.0098734.0098743-.0098734l1.0752048-.631258c-.1381111.2959118-.3057804.5819492-.483387.8680477-.996212 1.5683632-2.6139259 3.0381079-4.6952209 4.2316895-.7891712.4635849-1.647337.8779202-2.5449371 1.2428894-.4833279.1972942-.9666557.3847141-1.4993515.5622616-1.7064591.6016979-3.4918471 1.124464-5.3364172 1.5584869z"/><path d="m47.6241379 12.7483854c-.1183624.0789289-.2466011.1578579-.3649635.2269135l-3.1663818 1.8248243c-1.1047668.6313133-2.2095337 1.2724991-3.3143005 1.9037533-1.7262077.9765301-3.6497078 2.081358-5.9579201 2.8507214-.1282387.0493088-.2860374.0986176-.4932022.0986176-.1972351 0-.3748398-.0493088-.5128899-.1479244-.2564735-.1676731-.3156586-.4537678-.2663498-.6608753.1775475-.6313133.8976021-1.1146412 1.5782242-1.5092258.1381111-.0789299.2762222-.1577988.4143333-.2367287.7101822-.3945847 1.4796066-.8286057 2.406826-1.3612423.3550911-.2071667.7101822-.4142733 1.0652733-.621439.7793007-.4438944 1.6571541-.9567833 2.2983398-1.5387888.1775475-.1577978.3354034-.3255301.4734535-.4635811.2269173-.2367868.4636421-.4833879.7496796-.7003679.2170372-.1775455.483326-.3550911.8187294-.5523844l.10849-.0591822c.1775475-.10849.3748398-.2071667.5622597-.3057823-2.5646286.6707478-4.9418945 1.6177168-6.9442635 2.7717934-.542511.3156567-1.0653343.651-1.5486641.9864044-.7694206.5523834-1.4796028 1.1442013-2.1701012 1.7163334l-.10849.0888023-9.8739147 8.3055077c-2.5153179 2.110918-5.1194401 4.3007069-7.5460157 6.5102425l-.0295601.0197468-.0394955.029562-.6213789-.2268543.1281767-.10849.0493689-.0493088c2.5448799-2.2983379 5.2574902-4.5868034 7.8813591-6.796339l9.5582581-8.0293446c.6904984-.5721302 1.4697342-1.2330046 2.3180275-1.8346968.4932022-.3452177 1.0357132-.6904945 1.5979691-1.0160255 2.2095375-1.2823133 4.8432808-2.2982779 7.7038155-2.9887733h.0098724l1.0160255.5918188c-.5425682.2170401-1.0554581.4636412-1.5289726.7398033l-.10849.0591812c-.3057861.1775455-.542511.3354044-.7496796.5030766-.2466011.1874189-.4635811.404459-.6608734.6115656l-.0789299.0789289c-.1479225.1479845-.2860336.3057833-.4537048.4537678-.651062.5918179-1.5191002 1.0948944-2.3575211 1.5880957l-1.1146431.651c-.9272194.5326977-1.6867714.9568443-2.3969536 1.3513699l-.0493088.0296211c-.1282387.0690556-.2564735.1479244-.3847122.21698-.5820045.3354034-1.1935692.7398033-1.3218079 1.2034435-.0098114.0591831.0098724.1381111.0591812.1676731.0296211.0197468.0493698.0197468.0789299.0296211.0394936 0 .10849-.0296211.2071648-.0591831 2.2687187-.7496758 4.1527252-1.8347569 5.8197517-2.7915401 1.1048279-.6313133 2.2095947-1.27244 3.3143616-1.9037533l3.2846832-1.893939c.0394936-.0196867.0789299-.0493078.108551-.0689955z"/><path d="m18.5449009 23.3522301c-.1577969-.0986156-.3550911-.1577988-.5622578-.1577988-.0098133 0-.0098133 0-.0196857 0-.2663498 0-.4833298.0789299-.6313133.1381111l-.6016922.2367287c-1.0653334.404398-2.1306667.8187313-3.1861267 1.2330055-.9666567.3748379-1.92344.7595501-2.8802834 1.134388-.0986166.0394344-.2071066.0788689-.3255301.1281776l-.0986166.0296211c-.3353434.1183624-.7891111.2762222-1.1343889.4833279-.2367277.1282368-.3945255.2663479-.4932022.4241467-.1775455.2959099-.0788689.621439.2367878.8483543.2367268.1676712.5819445.2564144.9370356.2564144.0789289 0 .1479845 0 .2269144-.0098133 1.0357122-.0888042 2.14048-.4438953 2.9887733-.7398033 1.0061512-.3551521 2.002429-.8088589 3.0282679-1.4007378.8187313-.4734554 1.568409-.9765301 2.1996613-1.4105511.217041-.1479244.5129509-.3550911.5721321-.6313133.0493087-.2071056-.0493088-.4241466-.2564755-.5622577zm-.7693634.8187332c-.6608734.4438934-1.3809891.9272213-2.1602278 1.3809891-.9864044.5721321-1.9432478 1.0060921-2.9000301 1.3513699-.8088589.2761612-1.8544455.6016922-2.7915411.6904945-.2466011.0196876-.4734545-.0197468-.6115656-.1183644-.1775455-.1183624-.10849-.2170391-.0887432-.2564735.0394344-.0690556.138051-.1479855.2959099-.2367287.2564745-.1578579.6313124-.2860947.9567833-.404459l.0493078-.0197468c.1776056-.0591831.3255301-.1183643.4636412-.1676731.9567833-.3847103 1.9136267-.7594891 2.87041-1.1442013l.0690556-.0197468c1.0357122-.4043999 2.0714855-.8088589 3.1170712-1.2132587l.6016922-.2269135c.1183624-.0493088.21698-.0788689.3057823-.0887432l.1577988.0493088c.0296211.0296211.0394936.0591812.0394936.078928-.0296214.0986176-.236727.2466011-.3748381.3452187z"/><path d="m41.4196167 9.1677933-.0295601.0196877-.0690575-.0493088c-.4537659-.2761612-1.3908615-.0789289-2.0517349.1775455-1.1146431.434021-2.1996613.94697-3.3044319 1.5880966-1.8248825 1.05546-3.4228516 2.2589045-4.9715157 3.4327278l-.0887413.0690556c-.7102432.5326366-1.4401722 1.0850201-2.1898499 1.6078434-1.3414936.9567833-2.8309746 1.9135666-4.4091969 2.8211021-4.14291 2.3870811-9.0650568 4.6163635-14.648078 6.6187325-.9370966.3354053-1.7558289.5030766-2.43645.5030766-.4635811 0-.8680406-.0690556-1.2033844-.2268543-.4537673-.1972923-.7299895-.5523834-.7891712-.9370956l.7201158-.4142724c-.0098734.0197468-.0098734.0295601-.0197473.0493069-.0986161.2564754-.0394344.651001.4438939.868042.6313133.2860355 1.6374044.187418 2.9789-.2959099 5.5534601-1.9925556 10.4460459-4.2020912 14.5494623-6.5793591 1.5585346-.8976021 3.0282669-1.8346977 4.3599491-2.7717934.7496777-.5326366 1.489481-1.0948944 2.1996632-1.6374044l.0591812-.0394354c1.5486603-1.1738234 3.1565056-2.3871412 5.0208244-3.4622879 1.1343269-.6608744 2.24897-1.1935711 3.4129181-1.6374645.2269135-.0887432.759552-.2761621 1.3415565-.3452177h.0098152z"/></g></g></g></g><path d="m21.7623043 24.6512108c-1.0946617 0-1.9803562.8856945-1.9803562 1.9803581 0-.5463791-.2223778-1.0428982-.5789528-1.401392-.3585072-.3565884-.8550262-.5789661-1.401392-.5789661.5463657 0 1.0428848-.2223759 1.401392-.5789642.356575-.3584938.5789528-.8550148.5789528-1.4013729 0 .5463581.2223892 1.0428791.5789642 1.4013729.3584957.3565883.8550263.5789642 1.401392.5789642z" fill="#fff"/></g></g></svg>