<svg id="Capa_1" enable-background="new 0 0 512 512" height="512" viewBox="0 0 512 512" width="512" xmlns="http://www.w3.org/2000/svg"><g><g><path d="m256 426.667 88-84.334-15.622-35.149 10.651-74.56-83.029-168.624-18.667 192z" fill="#d2d2d7"/><path d="m173.333 213.333v117.334l82.667 96v-362.667z" fill="#ededf0"/></g><g><path d="m256 89.554 34.667-36.221 9.708-53.333h-44.375l-8 42.667z" fill="#d2d2d7"/><path d="m207.627 0-102.278 165.846-5.458 65.502-32.224 85.932v93.678l127-80.291v-117.334l61.333-123.779v-89.554z" fill="#e1e1e6"/></g><path d="m444.333 250.451-66.202-77.236-77.756-173.215-44.375 89.554 63.911 143.07-10.651 74.56 15.622 35.149 108.169 90.189 11.282-90.254z" fill="#b9b9be"/><g><path d="m324.882 342.333-68.882 63-8 53.334 8 53.333h116.784l60.267-79.478-56.202-90.189z" fill="#a0a0a5"/><path d="m194.667 330.667-75-8.719-52 89.01 88.181 101.042h100.152v-106.667z" fill="#b9b9be"/></g></g></svg>