<svg id="Layer_1" enable-background="new 0 0 500 500" viewBox="0 0 500 500" xmlns="http://www.w3.org/2000/svg" xmlns:xlink="http://www.w3.org/1999/xlink"><linearGradient id="lg1"><stop offset="0" stop-color="#f30"/><stop offset="1" stop-color="#ffd12e"/></linearGradient><linearGradient id="SVGID_1_" gradientUnits="userSpaceOnUse" x1="215.957" x2="359.738" xlink:href="#lg1" y1="488.321" y2="-55.576"/><linearGradient id="SVGID_2_" gradientUnits="userSpaceOnUse" x1="465.526" x2="193.684" xlink:href="#lg1" y1="91.496" y2="324.975"/><linearGradient id="SVGID_3_" gradientUnits="userSpaceOnUse" x1="454.101" x2="319.391" xlink:href="#lg1" y1="216.542" y2="262.651"/><linearGradient id="SVGID_4_" gradientUnits="userSpaceOnUse" x1="406.996" x2="324.996" xlink:href="#lg1" y1="145.662" y2="173.729"/><g><path d="m238.801 474.969c-112.961 2.395-60.244-134.829-33.167-173.722 27.078-38.893-2.926-78.303-4.391-105.594-1.463-27.291 40.251-48.682 57.082-74.61 16.831-25.929 9.514-96.043 9.514-96.043s51.226 48.723 45.372 96.043c-5.854 47.319 18.14 86.861 14.924 120.568s-24.438 49.912-5.411 108.252c19.028 58.34 7.789 123.161-83.923 125.106z" fill="url(#SVGID_1_)"/><path d="m282.474 59.463s21.223 57.691-17.564 86.861-48.3 42.133-29.273 83.62c19.028 41.486 20.491 60.932-13.173 111.493-33.663 50.562-28.504 117.954 32.932 109.549 61.435-8.406 27.809-90.75 27.077-138.719-.732-47.967 43.909-36.299 21.223-84.916-22.686-48.616-15.369-61.77-5.854-89.548 9.515-27.78-15.368-78.34-15.368-78.34z" fill="url(#SVGID_2_)" opacity=".5"/><path d="m290.037 114.344s1.897 21.828-26.373 45.269c-28.27 23.442-26.318 39.864-9.731 80.054 16.588 40.189 11.222 69.575-14.636 98.096-25.857 28.521-20.002 110.499 23.418 102.354 43.421-8.146-9.269-103.217 11.71-142.544 20.979-39.325 27.81-45.806 17.076-71.735-10.733-25.93-16.739-55.388-4.138-78.253 12.599-22.865 2.674-33.241 2.674-33.241z" fill="url(#SVGID_3_)" opacity=".3"/><path d="m313.211 121.043c5.854-47.32-45.372-96.043-45.372-96.043s7.317 70.114-9.515 96.043c-6.483 9.988-16.654 19.3-26.632 28.539 16.087 64.457 46.659 140.006 89.125 193.869-15.415-53.082 4.224-69.424 7.317-101.84 3.216-33.707-20.777-73.248-14.923-120.568z" fill="url(#SVGID_4_)" opacity=".2"/></g></svg>