<svg id="Capa_1" enable-background="new 0 0 497 497" height="512" viewBox="0 0 497 497" width="512" xmlns="http://www.w3.org/2000/svg"><g><path d="m89.186 152.055-14.686 24.696-28.92 18.91-38.817-29.643c-8.273-6.318-9.084-18.477-1.723-25.837l28.667-28.667c7.36-7.36 19.52-6.549 25.837 1.723z" fill="#fed2a4"/><g><path d="m59.476 189.264c-1.919 0-3.839-.732-5.304-2.197l-24.686-24.685c-2.929-2.929-2.929-7.678 0-10.606 2.93-2.929 7.678-2.929 10.607 0l24.686 24.685c2.929 2.929 2.929 7.678 0 10.606-1.464 1.465-3.384 2.197-5.303 2.197z" fill="#f6a96c"/></g><path d="m43.189 129.592 29.643 38.817 10.918-2.558 5.436-13.796-29.643-38.817c-6.318-8.273-18.477-9.084-25.837-1.724l-16.354 16.354c7.36-7.36 19.519-6.548 25.837 1.724z" fill="#ffbd86"/><g><path d="m423.99 455.101-19.27 19.28c-6.72 6.71-17.62 6.71-24.33 0l-177.27-177.27c-11.34-11.34-26.53-18.02-42.56-18.71l-10.34-.45c-15.03-.65-29.26-6.91-39.89-17.54l-64.75-64.75 19.2-19.2 10.61-10.61 13.8-13.8 48.8 48.81 1.63 1.63c4.74 4.73 10.32 8.43 16.4 10.95 5.39 2.22 11.15 3.52 17.07 3.77l15.04.65c15.43.67 30.05 7.1 40.97 18.02l194.89 194.89c6.72 6.72 6.72 17.61 0 24.33z" fill="#c38f86"/></g><path d="m423.99 455.101-16.35 16.35c6.72-6.72 6.72-17.61 0-24.33l-194.89-194.89c-10.92-10.92-25.54-17.35-40.97-18.01l-15.04-.65c-12.61-.55-24.55-5.8-33.47-14.72l-50.44-50.44 16.36-16.36 50.43 50.44c8.93 8.92 20.87 14.18 33.47 14.72l15.04.65c15.43.67 30.05 7.1 40.97 18.02l194.89 194.89c6.72 6.72 6.72 17.61 0 24.33z" fill="#b87d72"/><g><path d="m491.96 387.131-4.66 4.66-10.61 10.61-4.01 4.01c-6.71 6.72-17.61 6.72-24.33 0l-179.03-179.04-161.14-161.14c-6.72-6.72-6.72-17.61 0-24.33l4.01-4 10.61-10.61 4.66-4.67c6.71-6.71 17.61-6.71 24.32 0l340.18 340.18c6.72 6.72 6.72 17.61 0 24.33z" fill="#c38f86"/></g><path d="m491.961 362.802-340.176-340.177c-6.719-6.718-17.611-6.718-24.33 0l-16.354 16.355c6.718-6.718 17.611-6.718 24.329 0l340.176 340.176c6.719 6.718 6.719 17.611 0 24.329l16.354-16.354c6.72-6.718 6.72-17.611.001-24.329z" fill="#b87d72"/><path d="m487.3 391.791-10.61 10.61-157.06-157.06c-9.25-9.76-19.64-18.35-33.93-17.96l-16.38-.01-15-15 30.99.01c18.63-.48 32.73 9.48 44.93 22.35z" fill="#ab695d"/><g><path d="m156.02 213.441-27.75 3.97c-1.92.29-3.85.43-5.76.43-10.35 0-20.45-4.11-27.86-11.51l-29.87-29.87 10.61-10.61 29.87 29.87c5.43 5.43 13.2 7.99 20.79 6.85l11.94-1.71 1.63 1.63c4.74 4.73 10.32 8.43 16.4 10.95z" fill="#ab695d"/></g><g><path d="m188.43 103.531c-1.47 1.46-3.39 2.2-5.31 2.2-1.91 0-3.83-.74-5.3-2.2l-65.63-65.63 10.61-10.61 65.63 65.63c2.93 2.93 2.93 7.68 0 10.61z" fill="#ab695d"/></g></g></svg>