<svg id="Capa_1" enable-background="new 0 0 512 512" height="512" viewBox="0 0 512 512" width="512" xmlns="http://www.w3.org/2000/svg"><g><path d="m279.455 457.096h-95.121l-165.236-89.707-19.098-124.487 67.713-34.645 71.565-133.949 183.659-19.394 92.02 90.949 68.857 28.31 28.184 187.606z" fill="#a79ba7"/><g fill="#7a6d79"><path d="m169.425 189.502 25.651 49.69-40.64 27.45-86.721-58.38 71.567-133.955z"/><path d="m184.331 457.091-165.229-89.697-19.1-124.487 154.434 23.735 46.727 95.137z"/><path d="m512 361.779-232.542 95.312-10.97-94.113 67.321-96.336 148.005-92.469z"/></g><path d="m414.959 145.859-79.148 120.778-56.351 190.449h-95.127l-29.895-190.449 14.989-77.14 153.517-134.593z" fill="#918291"/><path d="m462.175 230.044c-4.268 0-7.726-3.408-7.726-7.675v-.103c0-4.267 3.459-7.726 7.726-7.726s7.726 3.459 7.726 7.726-3.458 7.778-7.726 7.778z" fill="#685e68"/><path d="m472.259 255.304c-4.268 0-7.726-3.459-7.726-7.726v-.103c0-4.267 3.459-7.726 7.726-7.726s7.726 3.459 7.726 7.726v.103c0 4.267-3.459 7.726-7.726 7.726z" fill="#685e68"/><path d="m449.376 252.202c-4.268 0-7.726-3.459-7.726-7.726v-.103c0-4.267 3.459-7.726 7.726-7.726s7.726 3.459 7.726 7.726v.103c.001 4.266-3.458 7.726-7.726 7.726z" fill="#685e68"/><path d="m205.483 203.329c-4.267 0-7.726-3.459-7.726-7.726v-.103c0-4.267 3.459-7.726 7.726-7.726s7.726 3.459 7.726 7.726v.103c0 4.267-3.459 7.726-7.726 7.726z" fill="#7a6d79"/><path d="m223.271 183.452c-4.267 0-7.726-3.459-7.726-7.726v-.103c0-4.267 3.459-7.726 7.726-7.726s7.726 3.459 7.726 7.726v.103c0 4.267-3.459 7.726-7.726 7.726z" fill="#7a6d79"/><path d="m231.108 208.274c-4.267 0-7.726-3.459-7.726-7.726v-.103c0-4.267 3.459-7.726 7.726-7.726s7.726 3.459 7.726 7.726v.103c0 4.266-3.459 7.726-7.726 7.726z" fill="#7a6d79"/><path d="m44.869 356.038c-4.267 0-7.726-3.459-7.726-7.726v-.103c0-4.267 3.459-7.726 7.726-7.726s7.726 3.459 7.726 7.726v.103c0 4.266-3.459 7.726-7.726 7.726z" fill="#685e68"/><path d="m67.203 369.594c-4.267 0-7.726-3.408-7.726-7.675v-.103c0-4.267 3.459-7.726 7.726-7.726s7.726 3.459 7.726 7.726-3.459 7.778-7.726 7.778z" fill="#685e68"/><path d="m67.713 345.618c-4.267 0-7.726-3.408-7.726-7.675v-.103c0-4.267 3.459-7.726 7.726-7.726s7.726 3.459 7.726 7.726-3.459 7.778-7.726 7.778z" fill="#685e68"/><path d="m167.506 101.994c-4.267 0-7.726-3.408-7.726-7.675v-.103c0-4.267 3.459-7.726 7.726-7.726s7.726 3.459 7.726 7.726c0 4.268-3.459 7.778-7.726 7.778z" fill="#918291"/><path d="m103.352 208.222c-4.267 0-7.726-3.459-7.726-7.726v-.103c0-4.267 3.459-7.726 7.726-7.726s7.726 3.459 7.726 7.726v.103c0 4.267-3.459 7.726-7.726 7.726z" fill="#685e68"/><path d="m112.933 187.673c-4.267 0-7.726-3.408-7.726-7.675v-.103c0-4.267 3.459-7.726 7.726-7.726s7.726 3.459 7.726 7.726-3.459 7.778-7.726 7.778z" fill="#685e68"/></g></svg>