<svg height="512pt" viewBox="1 0 511 512" width="512pt" xmlns="http://www.w3.org/2000/svg"><path d="m334.394531 123.828125c-36.75-35.101563-30.175781 12.058594-54.300781-12.066406-7.210938-7.207031-14.214844-10.273438-20.546875-10.976563l-67.304687 49.925782c-26.457032 22.179687-57.09375 44.25-78.585938 57.433593 23.027344 7.78125 42.328125 31.550781 73.46875 59.957031 39.148438 35.714844 95.125 39.496094 95.125 39.496094l33.753906-1.03125c.328125-9.5 4.960938-18.683594 13.4375-24.269531 7.109375-4.6875 15.453125-5.992187 23.152344-4.320313 2.746094.597657 5.363281-1.074218 5.945312-3.824218 1.617188-7.628906 6.152344-14.636719 13.21875-19.203125 7.066407-4.566407 15.324219-5.820313 22.941407-4.160157 2.714843.589844 5.347656-1.109374 5.921875-3.824218 1.613281-7.632813 6.152344-14.640625 13.21875-19.210938 7.070312-4.566406 15.324218-5.820312 22.945312-4.160156 2.710938.589844 5.34375-1.109375 5.917969-3.824219.851563-4.011719 2.515625-7.851562 4.925781-11.253906-60.410156-4.617187-80.570312-53.484375-113.234375-84.6875zm0 0" fill="#00a86d"/><path d="m282.25 307.597656s-.03125.007813-.082031.019532c.050781-.011719.082031-.019532.082031-.019532zm0 0" fill="#00a86d"/><path d="m282.167969 307.617188c-.113281.027343-.347657.085937-.710938.179687.359375-.09375.597657-.152344.710938-.179687zm0 0" fill="#00a86d"/><path d="m223.609375 170.636719 69.726563-51.722657c-3.304688.367188-7.359376-1.269531-13.242188-7.152343-7.210938-7.207031-14.214844-10.273438-20.546875-10.976563l-67.304687 49.925782c-26.457032 22.179687-57.09375 44.25-78.585938 57.433593 11.1875 3.78125 21.496094 11.339844 32.707031 21.363281 24.589844-17.035156 52.25-37.914062 77.246094-58.871093zm0 0" fill="#00915d"/><path d="m334.101562 304.507812s-86.882812 29.535157-12.707031 38.460938c74.179688 8.929688 228.371094 32.96875 55.976563 169.03125h-347.183594s305.953125-127.574219 184.382812-145.085938c-121.570312-17.515624 58.414063-62.40625 58.414063-62.40625zm0 0" fill="#00d1fc"/><path d="m284.371094 366.914062c-89.78125-12.9375-15.089844-40.800781 30.109375-54.488281 10.066406-4.667969 19.621093-7.917969 19.621093-7.917969h-61.117187s-179.980469 44.890626-58.414063 62.40625c121.570313 17.511719-184.382812 145.085938-184.382812 145.085938h69.804688s305.949218-127.574219 184.378906-145.085938zm0 0" fill="#00c1fb"/><path d="m418.644531 136.570312-27.359375-22.226562-14.140625 15.21875c-2.902343 3.125-7.789062 3.304688-10.914062.402344s-3.304688-7.789063-.402344-10.914063l19.058594-20.515625c2.769531-2.980468 7.371093-3.300781 10.527343-.738281l32.96875 26.789063c3.308594 2.6875 3.8125 7.550781 1.125 10.859374-2.691406 3.3125-7.550781 3.816407-10.863281 1.125zm0 0" fill="#433f43"/><path d="m395.554688 135.445312c-2.691407-3.308593-2.1875-8.171874 1.121093-10.859374l32.96875-26.789063c3.15625-2.5625 7.761719-2.238281 10.527344.738281l19.058594 20.515625c2.902343 3.125 2.722656 8.011719-.402344 10.914063s-8.011719 2.722656-10.914063-.402344l-14.140624-15.21875-27.359376 22.226562c-3.304687 2.6875-8.167968 2.1875-10.859374-1.125zm0 0" fill="#433f43"/><path d="m314.464844 213.3125-27.359375-22.230469-14.140625 15.21875c-2.902344 3.128907-7.789063 3.308594-10.914063.402344-3.125-2.902344-3.304687-7.789063-.402343-10.914063l19.0625-20.515624c2.765624-2.976563 7.371093-3.300782 10.527343-.738282l32.964844 26.789063c3.3125 2.691406 3.816406 7.554687 1.125 10.863281-2.6875 3.304688-7.550781 3.8125-10.863281 1.125zm0 0" fill="#433f43"/><path d="m291.371094 212.1875c-2.6875-3.308594-2.183594-8.171875 1.125-10.863281l32.96875-26.785157c3.15625-2.566406 7.757812-2.242187 10.527344.734376l19.058593 20.515624c2.902344 3.125 2.722657 8.011719-.402343 10.914063s-8.011719 2.722656-10.910157-.402344l-14.140625-15.21875-27.359375 22.226563c-3.3125 2.691406-8.175781 2.1875-10.867187-1.121094zm0 0" fill="#433f43"/><path d="m189.359375 36.144531c-1.808594.019531-3.355469-1.320312-3.578125-3.117187-2.308594-18.617188-18.175781-33.027344-37.421875-33.027344-15.976563 0-29.632813 9.9375-35.128906 23.96875-.527344 1.339844-1.78125 2.277344-3.222657 2.304688-7.015624.136718-13.394531 3.222656-17.839843 8.210937-1.152344 1.289063-3.109375 1.554687-4.550781.597656-4.074219-2.703125-9.101563-4.089843-14.46875-3.539062-10.183594 1.042969-18.421876 9.195312-19.550782 19.371093-1.476562 13.28125 8.882813 24.527344 21.867188 24.527344h40.535156l74.683594-.082031c10.097656-.832031 18.472656-9.304687 18.472656-19.566406 0-11.019531-9.03125-19.753907-19.796875-19.648438zm0 0" fill="#00c1fb"/><path d="m85.179688 50.914062c1.132812-10.175781 9.371093-18.328124 19.554687-19.371093 5.367187-.550781 10.394531.835937 14.464844 3.539062 1.441406.957031 3.402343.691407 4.554687-.597656 4.445313-4.988281 10.824219-8.074219 17.839844-8.210937 1.441406-.027344 2.695312-.964844 3.222656-2.304688 3.554688-9.082031 10.542969-16.425781 19.355469-20.492188-4.808594-2.226562-10.160156-3.476562-15.8125-3.476562-15.976563 0-29.632813 9.9375-35.128906 23.96875-.527344 1.339844-1.78125 2.277344-3.222657 2.304688-7.015624.136718-13.394531 3.222656-17.839843 8.210937-1.152344 1.289063-3.109375 1.554687-4.550781.597656-4.074219-2.703125-9.101563-4.089843-14.46875-3.539062-10.183594 1.042969-18.421876 9.195312-19.550782 19.371093-1.476562 13.28125 8.882813 24.527344 21.867188 24.527344h31.585937c-12.984375 0-23.347656-11.246094-21.871093-24.527344zm0 0" fill="#00aaf2"/><path d="m271.242188 120.199219c-1.40625-12.65625-11.652344-22.796875-24.320313-24.09375-6.675781-.683594-12.929687 1.039062-17.996094 4.402343-1.792969 1.191407-4.230469.859376-5.660156-.746093-5.53125-6.203125-13.464844-10.039063-22.191406-10.207031-1.792969-.035157-3.351563-1.203126-4.007813-2.871094-6.835937-17.453125-23.820312-29.8125-43.699218-29.8125-23.933594 0-43.671876 17.925781-46.546876 41.082031-.273437 2.234375-2.199218 3.902344-4.449218 3.878906-13.390625-.132812-24.625 10.730469-24.625 24.441407 0 13.445312 11.558594 24.441406 25.003906 24.441406h141.289062c16.15625-.003906 29.039063-13.992188 27.203126-30.515625zm0 0" fill="#00d1fc"/><path d="m109.332031 126.273438c0-13.710938 11.234375-24.574219 24.625-24.441407 2.25.019531 4.171875-1.644531 4.449219-3.882812 2.210938-17.796875 14.386719-32.492188 30.769531-38.347657-4.941406-1.765624-10.261719-2.730468-15.808593-2.730468-23.933594 0-43.671876 17.925781-46.546876 41.082031-.277343 2.234375-2.199218 3.902344-4.449218 3.878906-13.390625-.132812-24.625 10.730469-24.625 24.441407 0 13.445312 11.558594 24.441406 25.003906 24.441406h31.585938c-13.445313-.003906-25.003907-10.996094-25.003907-24.441406zm0 0" fill="#00c1fb"/><g fill="#00aaf2"><path d="m397.5 411.992188h-61.160156c-4.265625 0-7.722656-3.457032-7.722656-7.722657s3.457031-7.722656 7.722656-7.722656h61.160156c4.265625 0 7.722656 3.457031 7.722656 7.722656s-3.457031 7.722657-7.722656 7.722657zm0 0"/><path d="m379.09375 445.472656h-98.964844c-4.265625 0-7.722656-3.457031-7.722656-7.71875 0-4.265625 3.457031-7.722656 7.722656-7.722656h98.964844c4.265625 0 7.722656 3.457031 7.722656 7.722656s-3.457031 7.71875-7.722656 7.71875zm0 0"/><path d="m299.421875 411.992188h-14.171875c-4.265625 0-7.722656-3.457032-7.722656-7.722657s3.457031-7.722656 7.722656-7.722656h14.171875c4.265625 0 7.722656 3.457031 7.722656 7.722656s-3.460937 7.722657-7.722656 7.722657zm0 0"/><path d="m292.335938 373.359375h-15.925782c-4.261718 0-7.71875-3.457031-7.71875-7.722656s3.457032-7.722657 7.71875-7.722657h15.925782c4.265624 0 7.722656 3.457032 7.722656 7.722657s-3.457032 7.722656-7.722656 7.722656zm0 0"/><path d="m274.007812 481.878906h-76.582031c-4.265625 0-7.722656-3.457031-7.722656-7.722656s3.457031-7.722656 7.722656-7.722656h76.582031c4.265626 0 7.722657 3.457031 7.722657 7.722656s-3.457031 7.722656-7.722657 7.722656zm0 0"/></g><path d="m282.25 304.507812s-55.976562-4.808593-95.125-40.523437-56.320312-62.5-90.664062-61.8125c-30.464844.605469-64.945313-18.242187-87.820313-22.503906-4.234375-.789063-8.140625 2.453125-8.140625 6.757812v85.507813c62.007812 0 89.09375 45.964844 126.867188 53.519531 27.652343 5.53125 46.578124 21.34375 54.746093 29.429687-8.09375-20.289062 100.136719-50.375 100.136719-50.375zm0 0" fill="#57bf93"/><path d="m31.601562 186.40625c-8.398437-2.933594-16.191406-5.476562-22.960937-6.738281-4.234375-.789063-8.140625 2.453125-8.140625 6.757812v85.507813c11.464844 0 21.734375 1.574218 31.101562 4.183594zm0 0" fill="#00a86d"/><path d="m503.652344 167.445312c-3.019532.796876-5.96875 2.074219-8.734375 3.863282-7.066407 4.566406-11.605469 11.578125-13.21875 19.207031-.578125 2.714844-3.207031 4.417969-5.921875 3.824219-7.621094-1.660156-15.875-.40625-22.941406 4.164062-7.070313 4.566406-11.605469 11.574219-13.222657 19.207032-.574219 2.714843-3.207031 4.414062-5.917969 3.824218-7.621093-1.664062-15.875-.40625-22.945312 4.160156-7.066406 4.570313-11.601562 11.578126-13.21875 19.207032-.574219 2.714844-3.207031 4.417968-5.917969 3.828125-7.621093-1.664063-15.875-.40625-22.945312 4.160156-7.066407 4.566406-11.601563 11.574219-13.21875 19.203125-.582031 2.734375-3.1875 4.425781-5.917969 3.832031-7.707031-1.683593-16.058594-.378906-23.179688 4.3125-10.175781 6.703125-14.835937 21.679688-13.128906 33.078125 8.050782-3.460937 14.703125-5.71875 14.703125-5.71875 60.386719 0 65.246094-25.210937 113.761719-25.210937s70.496094-48.316407 70.496094-48.316407v-59.949218c0-4.46875-4.210938-7.816406-8.53125-6.675782zm0 0" fill="#7acba7"/><path d="m375.117188 285.824219c7.121093-4.691407 15.476562-5.992188 23.179687-4.3125 2.730469.59375 5.339844-1.097657 5.917969-3.828125 1.617187-7.628906 6.152344-14.636719 13.21875-19.203125 7.070312-4.570313 15.324218-5.824219 22.945312-4.164063 2.710938.589844 5.34375-1.109375 5.917969-3.824218 1.617187-7.628907 6.152344-14.640626 13.222656-19.207032 7.066407-4.570312 15.320313-5.824218 22.941407-4.164062 2.714843.59375 5.34375-1.105469 5.921874-3.824219 1.613282-7.628906 6.148438-14.640625 13.21875-19.207031 3.328126-2.148438 6.917969-3.558594 10.582032-4.28125v-25.6875c0-4.46875-4.210938-7.8125-8.53125-6.675782-3.019532.796876-5.96875 2.074219-8.734375 3.863282-7.066407 4.566406-11.605469 11.578125-13.21875 19.207031-.578125 2.714844-3.207031 4.417969-5.921875 3.824219-7.621094-1.660156-15.875-.40625-22.941406 4.164062-7.070313 4.566406-11.605469 11.574219-13.222657 19.207032-.574219 2.714843-3.207031 4.414062-5.917969 3.824218-7.621093-1.664062-15.875-.40625-22.945312 4.160156-7.066406 4.570313-11.601562 11.578126-13.21875 19.207032-.574219 2.714844-3.207031 4.417968-5.917969 3.828125-7.621093-1.664063-15.875-.40625-22.945312 4.160156-7.066407 4.566406-11.601563 11.574219-13.21875 19.203125-.578125 2.734375-3.1875 4.425781-5.917969 3.832031-7.707031-1.683593-16.058594-.378906-23.179688 4.3125-10.171874 6.703125-14.835937 21.679688-13.128906 33.078125 8.050782-3.460937 14.703125-5.71875 14.703125-5.71875 14.425781 0 25.675781-1.441406 35.117188-3.632812 1.980469-7.304688 6.054687-14.171875 12.074219-18.140625zm0 0" fill="#57bf93"/><path d="m441.6875 279.300781c-48.515625 0-53.375 25.207031-113.761719 25.207031 0 0-86.886719 29.53125-12.707031 38.460938 74.175781 8.929688 228.371094 32.96875 55.976562 169.03125h134.113282c3.796875 0 6.871094-3.078125 6.871094-6.871094v-274.144531c.003906 0-21.976563 48.316406-70.492188 48.316406zm0 0" fill="#98d829"/><path d="m362.148438 316.835938c13.269531-7.390626 28.050781-11.6875 43.191406-12.890626 46.761718-3.714843 54.71875-24.644531 98.929687-24.644531 2.722657 0 5.355469-.160156 7.914063-.449219v-47.867187s-21.980469 48.316406-70.496094 48.316406-53.375 25.207031-113.761719 25.207031c0 0-86.886719 29.53125-12.707031 38.460938 74.175781 8.929688 228.371094 32.96875 55.976562 169.03125h62.578126c54.402343-42.933594 76.273437-74.710938 78.40625-98.382812v-7.636719c-4.355469-45.046875-86.226563-57.214844-134.382813-63.011719-42.386719-5.101562-32.183594-16.929688-15.648437-26.132812zm0 0" fill="#8cc826"/><path d="m223.835938 366.914062c-27.292969-3.933593-39.378907-9.246093-41.722657-15.121093-8.167969-8.082031-27.089843-23.898438-54.742187-29.429688-37.777344-7.554687-64.859375-53.519531-126.871094-53.519531v236.285156c0 3.796875 3.078125 6.871094 6.871094 6.871094h32.085937c-.003906 0 305.949219-127.574219 184.378907-145.085938zm0 0" fill="#bced6b"/><path d="m31.601562 273.027344c-9.367187-2.609375-19.636718-4.183594-31.101562-4.183594v236.285156c0 3.796875 3.078125 6.871094 6.871094 6.871094h24.230468zm0 0" fill="#98d829"/></svg>