<svg height="512" viewBox="0 0 128 128" width="512" xmlns="http://www.w3.org/2000/svg"><g><g><path d="m66.979 23.824a24.834 24.834 0 0 0 -22.836 15.076 27.395 27.395 0 0 0 -.64 54.7 20.2 20.2 0 0 0 33.291 3.3c.816.065 1.634.124 2.467.124a30.747 30.747 0 0 0 9.681-59.933 24.819 24.819 0 0 0 -21.963-13.267z" fill="#685450"/><path d="m87.368 41.83-1.908-.63-.939-1.778a19.761 19.761 0 0 0 -20.768-10.322v69.849a15.151 15.151 0 0 0 9.2-5.256l1.657-1.988 2.581.2c.72.057 1.42.109 2.07.109a25.748 25.748 0 0 0 8.107-50.184z" fill="#534340"/><path d="m93.7 67.191a1.751 1.751 0 0 1 -1.419-2.773 8.434 8.434 0 0 0 -13.69-9.855 1.75 1.75 0 0 1 -2.841-2.045 11.935 11.935 0 0 1 19.373 13.945 1.748 1.748 0 0 1 -1.423.728z" fill="#685450"/><path d="m42.114 81.363a1.75 1.75 0 0 1 -1.614-1.063 9.414 9.414 0 0 1 17.334-7.352 1.75 1.75 0 1 1 -3.223 1.367 5.914 5.914 0 0 0 -10.887 4.615 1.75 1.75 0 0 1 -1.61 2.433z" fill="#534340"/></g><g fill="#432c00"><path d="m52.66 30.12a1.74 1.74 0 0 0 1.008-.321c.157-.111.314-.219.474-.326a1.751 1.751 0 0 0 -1.951-2.907c-.182.123-.363.247-.543.374a1.751 1.751 0 0 0 1.012 3.18z"/><path d="m90.154 35.65a26.592 26.592 0 0 0 -33.027-11.689 1.75 1.75 0 1 0 1.3 3.25 23.092 23.092 0 0 1 28.973 10.689 1.751 1.751 0 0 0 1 .844 29 29 0 0 1 14.814 43.893 1.75 1.75 0 0 0 2.886 1.979 32.5 32.5 0 0 0 -15.946-48.966z"/><path d="m99.813 86.731q-.353.354-.716.7a1.75 1.75 0 1 0 2.394 2.553q.407-.379.8-.775a1.75 1.75 0 0 0 -2.478-2.473z"/><path d="m43.624 91.85a25.646 25.646 0 0 1 -5.671-50.133 1.75 1.75 0 1 0 -1.014-3.349 29.145 29.145 0 0 0 6.444 56.973h.122a1.75 1.75 0 0 0 .119-3.5z"/><path d="m30.071 51.387a1.75 1.75 0 0 0 1.358 3.226c9.843-4.145 13.985-14.173 14.326-15.036a23.1 23.1 0 0 1 3.864-6.128 1.75 1.75 0 1 0 -2.632-2.306 26.533 26.533 0 0 0 -4.453 7.065c0 .01-.006.021-.01.031s-.01.017-.013.026c-.037.094-3.769 9.471-12.44 13.122z"/><path d="m96.318 84.721a1.75 1.75 0 1 0 -.636-3.442c-10.534 1.95-19.535 13.573-20.249 14.514a18.442 18.442 0 0 1 -26.45 1.946 1.75 1.75 0 0 0 -2.332 2.611 21.945 21.945 0 0 0 30.889-1.645c.564.037 1.131.064 1.721.064a32.419 32.419 0 0 0 17.294-4.978 1.75 1.75 0 0 0 -1.864-2.962 28.888 28.888 0 0 1 -14.191 4.4c3.2-3.512 9.329-9.307 15.818-10.508z"/><path d="m92.68 66.861a1.75 1.75 0 0 0 2.443-.4 11.935 11.935 0 0 0 -19.372-13.943 1.75 1.75 0 0 0 2.841 2.045 8.434 8.434 0 0 1 13.69 9.855 1.751 1.751 0 0 0 .398 2.443z"/><path d="m46.859 71.175a5.921 5.921 0 0 1 7.754 3.136 1.75 1.75 0 1 0 3.223-1.367 9.414 9.414 0 0 0 -17.336 7.356 1.75 1.75 0 1 0 3.222-1.366 5.916 5.916 0 0 1 3.135-7.755z"/></g></g></svg>