<?xml version="1.0" encoding="UTF-8" standalone="no"?>
<svg
   fill="none"
   height="512"
   viewBox="0 0 128 128"
   width="512"
   version="1.1"
   id="svg204"
   sodipodi:docname="cooked-carrot.svg"
   inkscape:version="1.2.2 (b0a84865, 2022-12-01)"
   xmlns:inkscape="http://www.inkscape.org/namespaces/inkscape"
   xmlns:sodipodi="http://sodipodi.sourceforge.net/DTD/sodipodi-0.dtd"
   xmlns="http://www.w3.org/2000/svg"
   xmlns:svg="http://www.w3.org/2000/svg">
  <defs
     id="defs208" />
  <sodipodi:namedview
     id="namedview206"
     pagecolor="#ffffff"
     bordercolor="#000000"
     borderopacity="0.25"
     inkscape:showpageshadow="2"
     inkscape:pageopacity="0.0"
     inkscape:pagecheckerboard="0"
     inkscape:deskcolor="#d1d1d1"
     showgrid="false"
     inkscape:zoom="1.1103786"
     inkscape:cx="110.32273"
     inkscape:cy="318.81017"
     inkscape:window-width="1920"
     inkscape:window-height="928"
     inkscape:window-x="0"
     inkscape:window-y="25"
     inkscape:window-maximized="1"
     inkscape:current-layer="svg204" />
  <path
     d="M 75.853966,16.464798 C 81.541522,9.258714 91.500891,5.055215 100.78212,9.258714 c 4.90274,2.220435 14.35622,11.234557 17.31723,16.81784 3.46345,6.530608 4.5325,16.464305 -7.11472,25.799408 C 74.229033,81.335172 50.26418,97.385393 20.247648,117.20641 8.7594778,124.79246 3.96507,117.7578 10.508045,108.2269 33.669771,74.485866 48.830544,50.702677 75.853966,16.464798 Z"
     fill="#ffa820"
     id="path188"
     style="fill:#e0651c;fill-opacity:1;stroke-width:1" />
  <g
     fill="#eb940c"
     id="g202"
     style="fill:#704707;fill-opacity:1;stroke-width:0.849152"
     transform="matrix(1.154482,0,0,1.2012743,4.9601122,-30.383337)">
    <path
       d="m 55.7017,46.0249 c 0.4176,-0.5202 0.8384,-1.0431 1.2626,-1.5688 1.7066,1.0801 3.7399,2.6066 5.6647,4.2244 2.3531,1.9778 4.6199,4.1559 5.9668,5.9015 0.3374,0.4373 0.2564,1.0652 -0.1808,1.4026 -0.4373,0.3374 -1.0653,0.2564 -1.4026,-0.1809 -1.2167,-1.5768 -3.3557,-3.6467 -5.6703,-5.5922 -1.9693,-1.6553 -4.0107,-3.1743 -5.6404,-4.1866 z"
       id="path190"
       style="fill:#704707;fill-opacity:1;stroke-width:0.849152" />
    <path
       d="m 8.68091,109.944 c 0.39187,-0.552 0.78133,-1.101 1.16852,-1.647 1.71987,1.63 3.76807,3.258 5.41467,4.262 0.4716,0.287 0.621,0.902 0.3336,1.374 -0.2874,0.472 -0.9027,0.621 -1.3743,0.333 -1.7294,-1.053 -3.7931,-2.688 -5.54249,-4.322 z"
       id="path192"
       style="fill:#704707;fill-opacity:1;stroke-width:0.849152" />
    <path
       d="m 44.152,102.863 c -0.6054,0.405 -1.2098,0.808 -1.8135,1.21 -3.6469,-2.375 -7.3992,-5.1343 -9.956,-7.6494 -0.3937,-0.3873 -0.3989,-1.0204 -0.0116,-1.4142 0.3873,-0.3937 1.0204,-0.3989 1.4141,-0.0116 2.5851,2.5429 6.5426,5.4182 10.367,7.8652 z"
       id="path194"
       style="fill:#704707;fill-opacity:1;stroke-width:0.849152" />
    <path
       d="m 77.2625,79.5064 c -0.5388,0.4 -1.0746,0.7968 -1.6076,1.1907 -0.9821,-1.2625 -2.4795,-2.9592 -4.0767,-4.5664 -1.6896,-1.7002 -3.4281,-3.2362 -4.7473,-4.0607 -0.4683,-0.2927 -0.6107,-0.9097 -0.318,-1.378 0.2927,-0.4684 0.9097,-0.6107 1.378,-0.318 1.5221,0.9512 3.3927,2.6229 5.106,4.3469 1.6557,1.6661 3.2228,3.4405 4.2656,4.7855 z"
       id="path196"
       style="fill:#704707;fill-opacity:1;stroke-width:0.849152" />
    <path
       d="m 38.1131,77.8925 c -0.3739,-0.4066 -1.0065,-0.4331 -1.413,-0.0592 -0.4065,0.3738 -0.433,1.0064 -0.0592,1.4129 2.7336,2.9727 5.5122,5.2671 9.2265,7.6951 0.4623,0.3022 1.082,0.1724 1.3842,-0.2899 0.3022,-0.4623 0.1724,-1.082 -0.2899,-1.3842 -3.5968,-2.3511 -6.2432,-4.5414 -8.8486,-7.3747 z"
       id="path198"
       style="fill:#704707;fill-opacity:1;stroke-width:0.849152" />
    <path
       d="m 92.1657,60.9344 c -0.4506,0.3193 -1.0748,0.2127 -1.394,-0.2379 -2.2251,-3.1409 -4.5724,-5.6491 -7.842,-8.4374 -0.4202,-0.3583 -0.4704,-0.9895 -0.112,-1.4097 0.3584,-0.4203 0.9895,-0.4704 1.4098,-0.112 3.3764,2.8793 5.8416,5.5076 8.1761,8.8029 0.3193,0.4507 0.2128,1.0748 -0.2379,1.3941 z"
       id="path200"
       style="fill:#704707;fill-opacity:1;stroke-width:0.849152" />
  </g>
</svg>
