<svg id="Layer_3" height="512" viewBox="0 0 64 64" width="512" xmlns="http://www.w3.org/2000/svg" data-name="Layer 3"><path d="m18 23 1.936-1.936a13.883 13.883 0 0 1 9.811-4.064 13.9 13.9 0 0 1 4.39.712l6.863 2.288-4 4z" fill="#89513d"/><path d="m17 41 .519.622a14.943 14.943 0 0 0 11.481 5.378l-4-5z" fill="#89513d"/><path d="m58 33 4-10a8.115 8.115 0 0 0 -5.278 1.952l-4.722 4.048-13.88-5.552a34.229 34.229 0 0 0 -12.711-2.448 34.227 34.227 0 0 0 -20.536 6.845l-2.873 2.155 2 3a5.224 5.224 0 0 0 2.591 4.512 40.3 40.3 0 0 0 20.301 5.488 34.774 34.774 0 0 0 10-1.468l15.108-4.532 4.722 4.048a8.115 8.115 0 0 0 5.278 1.952z" fill="#be624b"/><path d="m55 33-8.537-4.6a32 32 0 0 0 -21.455-3.2 18.289 18.289 0 0 0 -14.345 14.367 40.278 40.278 0 0 0 16.229 3.433 34.774 34.774 0 0 0 10-1.468l15.108-4.532 4.415 3.785z" fill="#c96d4c"/><path d="m49.933 36.017a13.917 13.917 0 0 1 -7.779-.3 2.617 2.617 0 0 0 -3.169 1.313 2.62 2.62 0 0 1 -3.094 1.337l-5.628-1.689a2.255 2.255 0 0 0 -2.836 1.613 2.255 2.255 0 0 1 -2.188 1.709 13.321 13.321 0 0 1 -10.233-4.793l-1.006-1.207-2.16 6.05a40.219 40.219 0 0 0 15.052 2.95 34.774 34.774 0 0 0 10-1.468l15.108-4.532 1.527 1.309.473-3.309z" fill="#e27654"/><path d="m13.639 39.841a13.581 13.581 0 0 0 3.361-8.941 13.58 13.58 0 0 0 -2.065-7.2l-.542-.867a34.225 34.225 0 0 0 -9.52 5.016l-2.873 2.151 2 3a5.224 5.224 0 0 0 2.591 4.512 40.3 40.3 0 0 0 6.451 3.012z" fill="#9f584d"/><g fill="#73412d"><path d="m25 23.654h2.001v17.692h-2.001z" transform="matrix(.735 -.678 .678 .735 -15.149 26.254)"/><path d="m45 29.172h2v5.657h-2z" transform="matrix(.707 -.707 .707 .707 -9.155 41.9)"/><path d="m22 32.758h2v8.485h-2z" transform="matrix(.707 -.707 .707 .707 -19.427 27.101)"/><path d="m30 22.929h2v14.142h-2z" transform="matrix(.707 -.707 .707 .707 -12.134 30.707)"/><path d="m38 25.343h2v11.314h-2z" transform="matrix(.707 -.707 .707 .707 -10.498 36.657)"/></g><path d="m52 32h6v2h-6z"/><path d="m56.722 41.048a8.115 8.115 0 0 0 5.278 1.952l-4-10 4-10a8.109 8.109 0 0 0 -5.278 1.952l-4.722 4.048v8z" fill="#995c4a"/><circle cx="12" cy="29" fill="#c96d4c" r="1"/><path d="m62 43-4-10h-6v4l4.722 4.048a8.115 8.115 0 0 0 5.278 1.952z" fill="#934c3b"/><path d="m4 33a5.224 5.224 0 0 0 2.591 4.512 40.3 40.3 0 0 0 6.451 3.012l.6-.683a13.576 13.576 0 0 0 1.971-2.967 19.335 19.335 0 0 0 -11.613-3.874z" fill="#934c3b"/></svg>