<svg viewBox="0 0 512 512" xmlns="http://www.w3.org/2000/svg"><g id="Rice"><path d="m183.5058 365.2518v8.2482c0 23.0941 32.4329 41.8155 72.441 41.8155s72.441-18.7214 72.441-41.8155v-8.2484" fill="#ad3b14"/><path d="m376.8967 169.9268c21.6854 15.4389 34.6782 35.1116 34.6782 56.5361a155.6281 155.6281 0 0 1 -311.2562 0c0-21.4239 12.9921-41.0961 34.6764-56.5348" fill="#ad3b14"/><path d="m391.1751 228.917c0-72.7656-60.5438-131.7539-135.2284-131.7539s-135.2285 58.9883-135.2285 131.7539v-2.4537c0 32.8412 55.5372 69.4327 135.23 69.4327s135.2272-36.5915 135.2272-69.4327" fill="#fff9e6"/><g fill="#d3aa88"><path d="m166.4117 203.2947a5.0835 5.0835 0 0 1 -3.6059-1.4941l-8.6536-8.6536a5.0995 5.0995 0 0 1 7.2118-7.2117l8.6535 8.6535a5.1 5.1 0 0 1 -3.6058 8.7059z"/><path d="m222.0485 254.22a5.0839 5.0839 0 0 1 -3.6059-1.4941l-8.6535-8.6536a5.0994 5.0994 0 0 1 7.2117-7.2117l8.6535 8.6535a5.1 5.1 0 0 1 -3.6058 8.7059z"/><path d="m229.8977 154.4687a5.0836 5.0836 0 0 1 -3.6059-1.4942l-8.6535-8.6535a5.0994 5.0994 0 0 1 7.2117-7.2117l8.6536 8.6535a5.1 5.1 0 0 1 -3.6059 8.7059z"/><path d="m332.7145 181.9957a5.0835 5.0835 0 0 1 -3.6059-1.4941l-8.6535-8.6536a5.0994 5.0994 0 0 1 7.2117-7.2117l8.6532 8.6537a5.1 5.1 0 0 1 -3.6059 8.7058z"/><path d="m320.49 231.5638a5.0833 5.0833 0 0 1 -3.6058-1.4941l-8.6536-8.6536a5.0994 5.0994 0 0 1 7.2117-7.2117l8.6536 8.6536a5.1 5.1 0 0 1 -3.6059 8.7058z"/><path d="m245.4243 215.0436a5.0835 5.0835 0 0 1 -3.6059-1.4941l-8.6535-8.6536a5.0994 5.0994 0 0 1 7.2117-7.2117l8.6536 8.6536a5.1 5.1 0 0 1 -3.6059 8.7058z"/></g><path d="m311.8314 315.43a5.1 5.1 0 0 1 -1.1007-10.078c24.7031-5.4885 46.56-14.6551 63.21-26.5086a5.1 5.1 0 0 1 5.9168 8.3075c-17.7529 12.64-40.89 22.3772-66.9151 28.157a5.1411 5.1411 0 0 1 -1.111.1221z" fill="#e0803f"/><path d="m166.4092 305.0531a5.08 5.08 0 0 1 -1.92-.3785 164.58 164.58 0 0 1 -28.1322-14.5753 5.0994 5.0994 0 0 1 5.5881-8.5316 154.4049 154.4049 0 0 0 26.389 13.659 5.1016 5.1016 0 0 1 -1.9249 9.8264z" fill="#e0803f"/></g></svg>