<svg id="Layer_1" enable-background="new 0 0 479.994 479.994" height="512" viewBox="0 0 479.994 479.994" width="512" xmlns="http://www.w3.org/2000/svg"><path d="m460.755 322.955c-30.53-25.29-68.3-21.4-99.01-2.66 4.85-56.19-5.28-107.8-26.63-152.18 9.106-4.553 19.562-12.312 28.01-21.84 8.21-9.28 8.56-23.17.61-32.68-25.77-30.82-64.43-47.12-105.43-41.75-55.751-44.528-127.665-67.466-203.22-63.38-25.01 1.35-45.14 21.48-46.49 46.49-4.074 75.336 18.739 147.327 63.38 203.22-5.37 41 10.93 79.66 41.75 105.43 9.51 7.95 23.4 7.6 32.68-.61 8.91-7.9 16.28-17.35 21.83-27.99v-.01c44.36 21.33 95.93 31.46 152.08 26.63-18.88 30.75-22.86 68.63 2.51 99.26 12.26 14.79 34.91 14.8 47.29.11 14.54-17.26 28.99-42.35 21.14-69.61 27.26 7.85 52.35-6.6 69.61-21.14 14.69-12.38 14.68-35.03-.11-47.29z" fill="#b5d5f5"/><g fill="#cbe3fa"><path d="m446.797 350.963c-12.308-2.788-24.953-2.323-37.243.701-14.413 3.547-28.355-7.09-28.697-21.929-.004-.175-.008-.35-.013-.525-.291-11.766 8.438-21.763 20.101-23.343 20.482-2.775 41.455 1.886 59.809 17.087.113.093.224.187.335.282 12.811 10.917 2.122 31.446-14.292 27.727z"/><path d="m294.433 131.641c-21.735-20.654-46.836-37.865-74.394-50.884-3.37-1.592-5.18-5.282-4.409-8.928 1.831-8.65 3.036-17.411 3.624-26.199 34.198 19.073 63.785 44.698 87.074 75.388 5.946 7.833-4.767 17.396-11.895 10.623z"/><path d="m194.643 230.706c-2.96 1.425-4.246 4.948-2.866 7.929l4.698 10.14c3.89 8.39 13.52 12.47 22.26 9.42 18.44-6.44 33.11-21.03 39.58-39.56 3.06-8.75-1-18.39-9.41-22.28l-10.132-4.7c-2.979-1.381-6.506-.108-7.928 2.852-7.712 16.05-20.549 28.665-36.202 36.199z"/></g><path d="m219.694 251.494c2.461 1.714 2.097 5.632-.959 6.701-8.738 3.056-18.37-1.03-22.26-9.42l-4.698-10.14c-1.38-2.98-.094-6.499 2.866-7.929 15.65-7.53 28.491-20.149 36.201-36.199 1.42-2.96 4.948-4.232 7.928-2.852l6.051 2.81c2.177 1.012 2.888 3.759 1.473 5.698-13.222 18.116-45.761 37.99-26.602 51.331z" fill="#eef7ff"/><path d="m363.735 113.595c7.95 9.51 7.6 23.4-.61 32.68-7.9 8.91-17.303 16.371-27.99 21.83-.962.491-19.642-50.573-76.83-96.26 41-5.37 79.66 10.93 105.43 41.75z" fill="#9ec7f0"/><path d="m353.789 123.547c-18.668-15.807-41.594-25.502-66.241-27.378-1.733-.132-3.359-.868-4.578-2.107-7.763-7.886-16-15.299-24.666-22.217 41-5.37 79.66 10.93 105.43 41.75 5.731 6.851-3.446 15.454-9.945 9.952z" fill="#b5d5f5"/><path d="m168.235 334.995v.01c-5.55 10.64-12.92 20.09-21.83 27.99-9.28 8.21-23.17 8.56-32.68.61-30.82-25.77-47.12-64.43-41.75-105.43 25.73 32.22 58.37 58.61 96.26 76.82z" fill="#9ec7f0"/><path d="m123.647 353.584c5.631 6.473-2.959 15.841-9.922 10.021-30.82-25.77-47.12-64.43-41.75-105.43 18.471 23.154 22.453 22.422 22.912 27.799 2.254 26.402 14.203 50.878 28.76 67.61z" fill="#b5d5f5"/><path d="m219.255 45.63c-6.216 93.147-80.423 167.285-173.494 173.495-26.74-47.91-40.396-104.44-37.166-164.17 1.35-25.01 21.48-45.14 46.49-46.49 59.73-3.23 116.26 10.415 164.17 37.165z" fill="#cbe3fa"/><path d="m219.255 45.63c0 3.157-1.024 12.621-2.962 22.8-.944 4.958-6.215 7.794-10.885 5.88-30.656-12.562-59.349-18.383-84.472-20.785-67.047-6.4-87.308 36.752-90.983 78.693-.809 9.233-14 10.036-15.82.948-4.958-24.756-6.994-50.983-5.536-78.211 1.34-25.01 21.48-45.14 46.49-46.49 59.728-3.23 116.258 10.415 164.168 37.165z" fill="#eef7ff"/><g><path d="m465.857 316.797c-26.738-22.149-61.511-25.674-95.206-10.293 3.873-91.75-31.3-171.787-91.806-227.563 30.294 1.359 58.268 15.293 78.749 39.787 5.412 6.472 5.217 15.825-.463 22.24-2.929 3.308-2.622 8.364.686 11.293 3.316 2.936 8.371 2.614 11.293-.686 10.97-12.387 11.289-30.518.759-43.111-27.236-32.572-67.843-49.215-109.204-44.941-57.021-44.449-130.112-67.151-206.009-63.05-29.236 1.579-52.474 24.817-54.053 54.053-3.232 59.815 10.203 117.879 37.792 167.717.237.559.53 1.087.881 1.571 28.637 50.999 70.117 89.826 117.769 114.553-4.448 6.936-9.79 13.182-15.947 18.634-6.415 5.681-15.768 5.874-22.24.463-13.282-11.105-23.901-25.088-30.71-40.436-1.792-4.039-6.52-5.859-10.557-4.068-4.039 1.792-5.86 6.518-4.068 10.557 7.796 17.572 19.924 33.556 35.072 46.222 12.585 10.523 30.715 10.218 43.111-.759 7.745-6.859 14.373-14.791 19.811-23.618 45.349 20.337 96.276 28.811 149.481 24.237 4.402-.378 7.664-4.254 7.286-8.656s-4.255-7.668-8.656-7.286c-112.291 9.653-207.8-42.145-260.625-127.823 76.469-10.179 138.665-64.484 160.356-136.317 1.277-4.229-1.116-8.694-5.346-9.971-4.228-1.277-8.694 1.116-9.971 5.346-20.326 67.306-79.936 118.774-153.704 125.826-24.76-46.383-36.745-100.052-33.759-155.329 1.138-21.062 17.878-37.802 38.94-38.939 169.95-9.177 313.892 121.977 298.259 303.154-.561 6.505 6.53 10.938 12.138 7.517 15.115-9.228 54.119-27.503 89.732 1.998 10.932 9.058 10.952 25.832.062 35.005-22.013 18.541-42.953 25.128-62.239 19.578-6.034-1.735-11.638 3.862-9.9 9.9 5.55 19.287-1.037 40.227-19.578 62.239-9.166 10.882-25.941 10.88-35.005-.063-9.993-12.063-15.363-25.802-15.96-40.835-.175-4.415-3.906-7.86-8.311-7.676-4.415.175-7.852 3.896-7.676 8.311.739 18.62 7.343 35.58 19.625 50.407 15.442 18.643 43.985 18.66 59.564.164 18.292-21.717 26.782-43.882 24.972-64.816 20.929 1.806 43.099-6.681 64.815-24.972 18.511-15.59 18.466-44.133-.16-59.564z"/><path d="m216.098 250.638c-4.875 1.704-10.19-.545-12.361-5.229l-7.272-15.695c-1.858-4.01-6.616-5.753-10.622-3.896-4.009 1.857-5.753 6.613-3.896 10.622l7.272 15.695c5.646 12.186 19.467 18.038 32.153 13.608 20.657-7.213 37.292-23.839 44.498-44.474 4.435-12.697-1.413-26.53-13.6-32.177l-15.701-7.275c-4.009-1.857-8.764-.113-10.622 3.896-1.857 4.009-.113 8.764 3.896 10.622l15.701 7.275c4.685 2.17 6.929 7.494 5.221 12.385-5.612 16.072-18.572 29.023-34.667 34.643z"/><path d="m121.151 102.209c4.418 0 8-3.582 8-8v-10.67h10.67c4.418 0 8-3.582 8-8s-3.582-8-8-8h-10.67v-10.67c0-4.418-3.582-8-8-8s-8 3.582-8 8v10.67h-10.67c-4.418 0-8 3.582-8 8s3.582 8 8 8h10.67v10.67c0 4.418 3.581 8 8 8z"/></g></svg>