<svg id="Icons" height="512" viewBox="0 0 60 60" width="512" xmlns="http://www.w3.org/2000/svg"><rect fill="#aa8563" height="7.764" rx="1.937" transform="matrix(.707 -.707 .707 .707 -12.426 30)" width="76.528" x="-8.264" y="26.118"/><path d="m16.394 26.123h27.191v7.775h-27.191z" fill="#e5b883" transform="matrix(.707 -.707 .707 .707 -12.437 29.996)"/><path d="m34.107 20.397 4.122 6.87-2.748 2.748-5.496-5.496z" fill="#c1976c"/><path d="m25.862 39.634-4.122-6.87 2.748-2.749 5.497 5.497z" fill="#c1976c"/><path d="m35.48 30.02-2.06 2.06-6.87-4.13 3.43-3.43z" fill="#f2c69c"/><path d="m47.707 8.218a1 1 0 1 0 -1.414-1.418l-45.432 45.435a2.941 2.941 0 0 0 0 4.154l2.75 2.75a2.941 2.941 0 0 0 4.154 0l51.375-51.373a2.945 2.945 0 0 0 0-4.155l-2.751-2.75a2.942 2.942 0 0 0 -4.154 0l-2.942 2.939a1 1 0 0 0 1.414 1.414l2.942-2.943a.938.938 0 0 1 1.326 0l2.75 2.75a.941.941 0 0 1 0 1.327l-15.376 15.379-4.076-4.075zm-24.707 24.705 1.49-1.49 4.075 4.075-2.509 2.509zm1.6 6.552-1.48 1.479-4.075-4.075 2.5-2.5zm1.3-9.456.8-.8 5.1 3.053-1.822 1.822zm2.261-2.261 1.821-1.821 4.076 4.075-.8.8zm3.239-3.236 2.509-2.509 3.057 5.095-1.49 1.49zm-25.049 33.203a.94.94 0 0 1 -1.326 0l-2.75-2.75a.94.94 0 0 1 0-1.326l15.357-15.356 4.075 4.075zm34.583-34.584-2.509 2.509-3.056-5.094 1.49-1.49z" fill="#373737"/></svg>