<svg height="512" viewBox="0 0 64 64" width="512" xmlns="http://www.w3.org/2000/svg"><g id="outline_color" data-name="outline color"><path d="m58.41 41.22a2.28 2.28 0 0 0 1.78-2.86 2.31 2.31 0 0 0 -2.64-1.65 23.08 23.08 0 0 1 -7.69 0 3.25 3.25 0 0 0 -5.37-3.39 3.26 3.26 0 0 0 -4.61-4.61 3.26 3.26 0 0 0 -4.61-4.61 3.26 3.26 0 1 0 -4.61-4.61 3.26 3.26 0 0 0 -4.61-4.61l-1.4 1.41c-2.83-2.83-3-6.4-5.56-9-3.65-3.62-8.69-3.8-12.24-.29s-3.36 8.59.29 12.24c2.59 2.59 6.16 2.72 9 5.55l-1.4 1.4a3.26 3.26 0 0 0 4.61 4.61 3.26 3.26 0 1 0 4.61 4.61 3.26 3.26 0 0 0 4.61 4.61 3.26 3.26 0 1 0 4.61 4.61 3.26 3.26 0 0 0 4.61 4.61l1.4-1.4c2.83 2.82 3 6.39 5.55 9 3.65 3.65 8.7 3.83 12.24.29s3.37-8.59-.28-12.24c-1.73-1.74-3.9-2.37-6-3.44a27.69 27.69 0 0 0 7.71-.23zm-44.48-24.22a10.19 10.19 0 0 1 -2.75-1.79c-1.11-1.11-1.88-2.54-.28-4.15s3-.83 4.15.29a10.28 10.28 0 0 1 1.79 2.74 16.24 16.24 0 0 0 4.09 5.91l-1.09 1.09a16.55 16.55 0 0 0 -5.91-4.09zm39 36.08c-1.61 1.6-3 .83-4.15-.28a10.19 10.19 0 0 1 -1.78-2.73 16.55 16.55 0 0 0 -4.09-5.91l1.09-1.09a16.24 16.24 0 0 0 5.91 4.09 10.28 10.28 0 0 1 2.72 1.84c1.12 1.07 1.89 2.5.29 4.1z" fill="#c07a53"/><g fill="#fa9f4d"><path d="m31.61 17.21a3.21 3.21 0 0 1 -.95 2.3l-8.31 8.31a3.26 3.26 0 0 1 -4.63-4.59l8.31-8.3a3.26 3.26 0 0 1 5.56 2.3z"/><path d="m40.83 26.43a3.21 3.21 0 0 1 -.95 2.3l-8.31 8.27a3.26 3.26 0 0 1 -4.57-4.57l8.31-8.31a3.26 3.26 0 0 1 5.56 2.31z"/><path d="m50.05 35.65a3.21 3.21 0 0 1 -.95 2.35l-8.31 8.31a3.26 3.26 0 0 1 -4.61-4.61l8.31-8.31a3.26 3.26 0 0 1 5.56 2.31z"/></g><path d="m57.35 35.64a22.19 22.19 0 0 1 -6.36.15 4.2 4.2 0 0 0 -4.63-4.45 2.58 2.58 0 0 0 0-.39 4.22 4.22 0 0 0 -4.65-4.22 2.58 2.58 0 0 0 0-.39 4.23 4.23 0 0 0 -4.65-4.22 2.58 2.58 0 0 0 0-.39 4.25 4.25 0 0 0 -4.26-4.26 2.45 2.45 0 0 0 -.38 0c0-.13 0-.26 0-.39a4.26 4.26 0 0 0 -7.27-3l-.65.64a16.41 16.41 0 0 1 -2-3.63 14.55 14.55 0 0 0 -2.85-4.6 10.1 10.1 0 0 0 -7.07-3.13 9.2 9.2 0 0 0 -6.47 2.88 9.2 9.2 0 0 0 -2.85 6.57 10.1 10.1 0 0 0 3.13 7.08 14.55 14.55 0 0 0 4.61 2.85 16.41 16.41 0 0 1 3.63 2l-.64.65a4.26 4.26 0 0 0 3 7.27 2.58 2.58 0 0 0 .39 0 4.22 4.22 0 0 0 4.22 4.65 2.58 2.58 0 0 0 .39 0 2.58 2.58 0 0 0 0 .39 4.2 4.2 0 0 0 1.25 3 4.25 4.25 0 0 0 3 1.25h.39a2.58 2.58 0 0 0 0 .39 4.25 4.25 0 0 0 4.26 4.26 2.33 2.33 0 0 0 .38 0v.39a4.26 4.26 0 0 0 7.27 3l.65-.64a16.41 16.41 0 0 1 2 3.63 14.55 14.55 0 0 0 2.81 4.5 10.08 10.08 0 0 0 7.07 3.13 9.75 9.75 0 0 0 9.42-9.42 10.06 10.06 0 0 0 -3.13-7.07 10.22 10.22 0 0 0 -2.15-1.64 31 31 0 0 0 3.34-.36 3.26 3.26 0 0 0 2.17-1.46 3.34 3.34 0 0 0 .4-2.66 3.29 3.29 0 0 0 -3.77-2.36zm-45.53-14.72a12.65 12.65 0 0 1 -4-2.45 8.05 8.05 0 0 1 -2.55-5.66 7.19 7.19 0 0 1 2.26-5.15 7.19 7.19 0 0 1 5.15-2.27 8.05 8.05 0 0 1 5.65 2.55 12.65 12.65 0 0 1 2.45 4 17.61 17.61 0 0 0 2.44 4.23l-2.34 2.34a15.3 15.3 0 0 1 -3.11-4.75l-.07-.16a11.35 11.35 0 0 0 -2-3 4.72 4.72 0 0 0 -2.41-1.44 3.44 3.44 0 0 0 -3.15 1.16c-1 1-2.26 3 .28 5.56a11.2 11.2 0 0 0 3 2l.15.07a15.23 15.23 0 0 1 4.82 3.05l-2.34 2.34a17.61 17.61 0 0 0 -4.23-2.42zm5.95-3a20.33 20.33 0 0 0 -3.34-1.83l-.13-.09a9.38 9.38 0 0 1 -2.45-1.59c-1.26-1.26-1.06-1.95-.28-2.73s1.09-.65 1.36-.6a2.84 2.84 0 0 1 1.37.92 9.38 9.38 0 0 1 1.59 2.45v.13a20.33 20.33 0 0 0 1.88 3.32zm-2.38 12.08a2.26 2.26 0 0 1 0-3.19l4.36-4.36.41-.41 6.56-6.56a2.21 2.21 0 0 1 1.59-.66 2.26 2.26 0 0 1 1.6 3.86l-11.32 11.32a2.27 2.27 0 0 1 -3.2 0zm4.61 4.65a2.26 2.26 0 0 1 0-3.19l11.33-11.33a2.21 2.21 0 0 1 1.59-.66 2.26 2.26 0 0 1 1.6 3.86l-11.32 11.32a2.27 2.27 0 0 1 -3.2 0zm4.61 4.61a2.23 2.23 0 0 1 -.66-1.6 2.21 2.21 0 0 1 .66-1.59l11.33-11.33a2.23 2.23 0 0 1 1.59-.66 2.26 2.26 0 0 1 1.6.66 2.23 2.23 0 0 1 .66 1.6 2.21 2.21 0 0 1 -.66 1.59l-11.33 11.33a2.26 2.26 0 0 1 -3.19 0zm4.61 4.61a2.27 2.27 0 0 1 0-3.2l11.32-11.32a2.27 2.27 0 0 1 3.2 0 2.23 2.23 0 0 1 .66 1.65 2.21 2.21 0 0 1 -.66 1.59l-11.33 11.28a2.31 2.31 0 0 1 -3.19 0zm4.61 4.61a2.27 2.27 0 0 1 0-3.2l11.32-11.28a2.26 2.26 0 0 1 3.2 3.19l-4.35 4.32-1.3 1.31-5.7 5.66a2.31 2.31 0 0 1 -3.17 0zm24.65 2.71a7.78 7.78 0 0 1 -7.42 7.42 8.05 8.05 0 0 1 -5.65-2.55 12.65 12.65 0 0 1 -2.45-4 17.61 17.61 0 0 0 -2.44-4.23l2.34-2.34a15.3 15.3 0 0 1 3.14 4.74l.07.16a11.35 11.35 0 0 0 2 3 4.68 4.68 0 0 0 2.41 1.44 3.27 3.27 0 0 0 .57.05 3.59 3.59 0 0 0 2.58-1.21c1-1 2.26-3-.28-5.56a11.2 11.2 0 0 0 -3-2l-.15-.07a15.23 15.23 0 0 1 -4.85-3.04l2.34-2.34a12.09 12.09 0 0 0 2.38 1.56l.2.19h.17c.49.24 1 .46 1.47.68a12.91 12.91 0 0 1 4 2.46 8.05 8.05 0 0 1 2.57 5.64zm-12.48-5.09a20.33 20.33 0 0 0 3.34 1.83h.13a9.38 9.38 0 0 1 2.45 1.59c1.26 1.26 1.06 2 .28 2.73s-1.09.65-1.36.6a2.84 2.84 0 0 1 -1.4-.85 9.38 9.38 0 0 1 -1.59-2.45l-.05-.13a20.33 20.33 0 0 0 -1.8-3.32zm13-6.51a1.25 1.25 0 0 1 -.82.56 26.56 26.56 0 0 1 -7.24.26 10.44 10.44 0 0 1 -1.81-1.17l.65-.65a4.25 4.25 0 0 0 .64-.84 24.05 24.05 0 0 0 7.29-.12 1.29 1.29 0 0 1 1.49.92 1.32 1.32 0 0 1 -.2 1.04z"/></g></svg>