<svg id="Capa_1" enable-background="new 0 0 512 512" height="512" viewBox="0 0 512 512" width="512" xmlns="http://www.w3.org/2000/svg"><g><g><path d="m215.786 219.194 6.384-40.459 32.802-15.764 19.347-89.201 151.027-55.617 76.654-3.658-50.246 154.439-42.593 25.556-53.396 90.878-64.162 9.643z" fill="#e0e7ef"/></g><g><path d="m16.686 405.646-6.686 14.611 38.632 38.631 38.631 38.631 14.611-6.686 189.729-195.822-75.817-75.817z" fill="#d98964"/></g><g><path d="m509.949 8.428c-1.993-2.612-5.144-4.067-8.425-3.921l-76.604 3.655c-1.025.043-2.068.251-3.029.607l-151.028 55.618c-3.209 1.182-5.592 3.922-6.317 7.264l-18.311 84.424-28.396 13.647c-2.961 1.423-5.034 4.209-5.546 7.455l-6.239 39.536-196.161 181.595c-.969.897-1.75 1.977-2.3 3.177l-6.686 14.61c-1.738 3.799-.932 8.278 2.022 11.232l77.263 77.263c2.922 2.922 7.473 3.742 11.232 2.022l14.61-6.686c1.131-.518 2.155-1.242 3.021-2.135l45.043-46.49c3.843-3.966 3.743-10.297-.223-14.141-3.967-3.843-10.298-3.742-14.14.224l-43.734 45.138-6.581 3.011-67.435-67.436 2.962-6.473 142.515-131.933 57.259 69.977-24.01 24.781c-3.843 3.966-3.743 10.297.224 14.141 3.967 3.843 10.297 3.743 14.141-.224l81.358-83.971 60.819-9.14c2.984-.449 5.606-2.221 7.136-4.823l52.104-88.68 40.408-24.245c2.068-1.241 3.618-3.188 4.364-5.481l50.245-154.437c1.016-3.125.433-6.549-1.561-9.161zm-238.233 292.737-68.38-54.683 13.291-12.304 60.944 60.943zm-89.55-35.084 6.329-5.859 69.241 55.372-19.006 19.616zm261.236-103.797-39.386 23.632c-1.434.86-2.629 2.067-3.477 3.509l-50.979 86.764-54.454 8.184-68.649-68.649 4.773-30.247 28.073-13.492c2.78-1.336 4.788-3.88 5.441-6.894l18.183-83.834 127.948-47.118-5.792 22.364-11.657 14.433c-3.47 4.296-2.8 10.592 1.496 14.063 4.24 3.425 10.64 2.741 14.063-1.496l13.016-16.115c.896-1.109 1.544-2.396 1.901-3.776l9.277-35.82 54.83-2.617z"/><path d="m369.18 111.9-9.985 5.706-13.38-2.973c-5.39-1.199-10.733 2.202-11.931 7.592-1.198 5.392 2.201 10.733 7.592 11.931l17.154 3.812c.717.16 1.445.238 2.169.238 1.728 0 3.439-.448 4.961-1.317l13.342-7.624c4.795-2.74 6.461-8.849 3.721-13.644-2.739-4.794-8.848-6.459-13.643-3.721z"/><path d="m321.445 214.483c-1.877-2.624-4.905-4.18-8.131-4.18h-17.154c-5.522 0-10 4.477-10 10s4.477 10 10 10h12.015l5.904 8.247c1.953 2.728 5.023 4.181 8.14 4.181 2.015 0 4.049-.607 5.812-1.87 4.491-3.214 5.526-9.461 2.311-13.952z"/><path d="m184.3 403.177c-3.585-2.457-8.553-2.145-11.894.582-3.371 2.752-4.542 7.538-2.886 11.548 3.444 8.34 15.791 7.934 18.694-.608 1.431-4.209-.173-9.073-3.914-11.522z"/></g></g></svg>